/* XPM */
static char *result[] = {
/* columns rows colors chars-per-pixel */
"64 64 61 1 ",
"  c #C9810E",
". c #D1860E",
"X c #D6890F",
"o c #DB8C0F",
"O c #E1900F",
"+ c #E08F10",
"@ c #E49210",
"# c #EB9611",
"$ c #EE9811",
"% c #F39C12",
"& c #F39F1B",
"* c #F3A01F",
"= c #F3A123",
"- c #F3A52D",
"; c #F3A732",
": c #F3A836",
"> c #F3AA3B",
", c #A59D7E",
"< c #AA9F7D",
"1 c #ADA07B",
"2 c #BCA677",
"3 c #B4A37A",
"4 c #BEA97C",
"5 c #F3AD44",
"6 c #F3AF49",
"7 c #F3B04B",
"8 c #F3B65D",
"9 c #D4AF6F",
"0 c #D7B06F",
"q c #DDB26D",
"w c #C0A776",
"e c #C4A975",
"r c #CDAD73",
"t c #C5AB78",
"y c #D2AE71",
"u c #DCB370",
"i c #EBB767",
"p c #EEB867",
"a c #E3B56B",
"s c #EAB769",
"d c #ECB869",
"f c #F1B760",
"g c #F2B965",
"h c #758C8E",
"j c #7C8E8B",
"k c #7E908A",
"l c #778E90",
"z c #788F91",
"x c #7B9295",
"c c #7D9598",
"v c #7F989B",
"b c #8B9486",
"n c #859188",
"m c #889288",
"M c #929684",
"N c #9C9B82",
"B c #969C8B",
"V c #819A9D",
"C c #ADA382",
"Z c #B0A480",
"A c #849EA1",
/* pixels */
"hhhcAAAAAAAVhhhlcccccccccccccccccccccccccxhhhxcccccccccccccxhhhh",
"hlVAAAAAAAAAVhhhccccccccccccccccccccccccchhhlcccccccccccccccxhhh",
"hVAAAAAAAAAAAvhhzcccccccccccccccccccccccxhhlccccccccccccccccclhh",
"VAAAAAAAAAAAAAchhccccccccccccccccccccccclhhzcccccccccccccccccxhh",
"AAAAAAAAAAAAAAAzhlccccccccccccccccccccczhhhzccccccccccxccccccxhV",
"AAAAAAAAAAAAAAAVhhlcccccccccccccccccccxhhhhhccccccccccccccccclxA",
"AAAAAAAAAAAAAAAAxhhzcccccccccccccccccxhhhhhhzcccccccccccccccxhvA",
"AAAAAAAAAAAAAAAAchhhxcccccccccccccccxhhxvvlhhccccccccccccccxllcA",
"AAAAAAAAAAAAAAAAxhhhhzccccccccccccczhhcAAAAVlhccccccccccccxlhhzA",
"AAAAAAAAAAAAAAAAhhhhhhzccccccccccczlhvAAAAAAVlhccccccccccclhhhhv",
"vAAAAAAAAAAAAAAchhhhhhhlxcccccccczlhcAAAAAAAAvhhxcccccccxlhhhhhl",
"zAAAAAAAAAAAAAxhhhhhhhhhhccccccxzhhcAAAAAAAAAAchlxcccccxlhhhhhhh",
"lcVAAAAAAAAAVzhhhhhhhhhhhhxxccxhhhlAAAAAAAAAAAAxhhzcccxlhlzxxxlh",
"hhcAAAAAAAAVzhhhhhhhhhhhhhhhhhhhhhlAAAAAAAAAAAAchhhllhhhzccccccc",
"chhcAAAAAAvzhhzcccxhhhhhhhhhhhhhhhhVAAAAAAAAAAAlhhhhhhhxcccccccc",
"cchhvVAAAvhhhlcccccxhhhhhhhhhhhhhhhzAAAAAAAAAAxlhhhhhhxccccccccc",
"ccchhhzzhhhhzccccccczhhhhhhhhhhhhhhhxAAAAAAAAxhhhhhhlxcccccccccc",
"cccchhhhhhhxccccccccclhhhhhhhhhhhhhhhxAAAAAAchhhhhhhzccccccccccc",
"ccccchhhhhzccccccccccchhhhhhhhhxzzllhhzAAAAchhhhhhhzcccccccccccc",
"cccccchhhhcccccccccccczhhhhjbCCCCCCBjhhzVVzhhhhhhlxccccccccccccc",
"ccccccchhhzccccccccccczhhk,rqaspsssurCjhhhhhhhhhhzcccccccccccccc",
"cccccccchhhcccccccccccchb0i87>;;;;>68s9Mhhhhhhhhzccccccccccccccc",
"ccccccccchhlcccccccccxh,dg5**%%%%%%&=58p,hhhhhlzcccccccccccccccc",
"ccccccccchhhxcccccccxhmp8-%%%%%$%%%%%%-8gbhhhhlzcccccccccccccccc",
"cccccccccxhhzcccccczhbsg;%%%%$$%$$%%%%%-fgMhhhlccccccccccccccccc",
"ccccccccczhhhhcccxhhkrg:%%%$OoX...X@#%%%:g9jhhlccccccccccccccccc",
"ccccccccczhhhhhhhhhh1s7%%%$o        X#%%%6d1hhhccccccccccccccccc",
"ccccccccczhhhhhhhhhkr8=%%$+    XX.  .o$%%=fynhhzcccccccccccccccc",
"ccccccccchhhhhhhhhhNq7*%%O    o$#o    @%%%6aNhhlcccccccccccccccc",
"cccccccchhhhhhhhhhl1s:%%%o    #$%#    X#%%;dZhhhzccccccccccccccc",
"ccccccclhhhhhhhhhhx4g=%%$     $%%#    .#%%=gtlhhhccccccccccccccc",
"cccccczhhhhhhhhhhhz4g=%%$     $%%#     #%%&gtzhhhlzccccccccccccc",
"ccccczhhhhhhhhhhhhh4g*%%#     #%%%     #%%&gtxhhhhhxcccccccccccc",
"ccccxhhhhhhhhhhhhhh4g*%%#     #%%#     #%%*gtzhhhhhhcccccccccccc",
"ccczhhhhhhhhlhhhhhh1d:$$$X    #%%#    .#%%;sZhhhhhhhhccccccccccc",
"cczhhhhhhhxcccczhhlNa6*%%O    O$%@    +%%%5sNhhhhhhhhhxccccccccc",
"clhhhhhhhxccccccchhny8*%%#X   .oo.   X#%%&80nhhhhhhhhhhxcccccccc",
"hhhhhhhhzccccccccczh3s>%%%#X        X#%%%:d3hhhxVVVchhhhxccccccx",
"hhhhhhhhccccccccccczn08-%%%$OX    .+$%%%-8abhhxVVAAAVhhhhhxccczh",
"hhhhhhhcccccccccccccz1g8*%%%%######%%%%=8g<hhxAAAAAAAVhhhhhhhhhh",
"hhhhhhxccccccccccccccx2g8;$%%%%%%%%%%%:8gejhxAAAAAAAAAVlhhhhhhhh",
"hhhhhlccccccccccccccccl3p8>*%%%*%%%%%;8g3hhxAAAAAAAAAAAVhhhhhhhh",
"hhhhhcccccccccccccccccxl,qp8>=**&==>8pq,hhxAAAAAAAAAAAAAVhhhhhhh",
"hhhhlcccccccccccccccccxhhn2qiggggggsq2bhhzAAAAAAAAAAAAAAAVhhhhhh",
"hhhhxccccccccccccccccclhhhhb14ttttw<bjhhhVAAAAAAAAAAAAAAAAxhhhhh",
"hhhhlccccccccccccccccxhhhhhhhhhhhhhhhhhhxAAAAAAAAAAAAAAAAAVhhhhh",
"hhhhhxccccccccccccccclhhhhhhhhhhhhhhhhhhcAAAAAAAAAAAAAAAAAAhhhhh",
"hhhhhhxccccccccccccckhhhhhhhhhhhhhhhhhhhzAAAAAAAAAAAAAAAAAchhhhh",
"hhhhhhhxcccccccccccxhhhhhhhhhhhhhhhhhhhhhvAAAAAAAAAAAAAAAAzhhhhh",
"hhhhhhhhxcccccccccxhhhhhhhhhhhhhhhhhhhhhhlAAAAAAAAAAAAAAAchhhlzh",
"xhhhhhhhhlcccccccchhhhhhhhhhhhhhhhhhhhhhhhlvAAAAAAAAAAAAchhhcAAA",
"AchhhhhhhhhxccccchhhhhhhhhzxxxzhhhhhhhhhhhlzAAAAAAAAAAAchhhcAAAA",
"AAchhhhhhhhhzxxxhhhhhhhhhccccccchhhhhhhhhhhhlvAAAAAAAAchhhcAAAAA",
"AAAchhhhhhhhhhhhhhhhhhhhxcccccccczhhhhhhhhhhhlvAAAAAAxhhhvAAAAAA",
"AAAAchhhhhhhhhhhhhhhhhlccccccccccczhhhhhhhhhhhhvAAAAxhhhcvAAAAAA",
"AAAAvhhhhhhhhhhhhhhhhzcccccccccccccxhhhhhhhhhhhhxcxhhhhhvAAAAAAA",
"AAAAvhhhhhhhhhhhhhhhzcccccccccccccccxhhhhhhhhhhhhhhhhhhhvAAAAAAA",
"AAAAchhhhhhhhhhhhhhhccccccccccccccccczhhhhhhhhhhhhhhhhhhvAAAAAAA",
"AAAchhhhhhhhhhhhhhhccccccccccccccccccczhhhhhhhhhhhhhhhhhhvAAAAAA",
"AAchhhhhhhhhhhhhhhccccccccccccccccccccczhhhhhhhhhhxcccxhhhvAAAAA",
"AxhhhhhhhhhhhhhhhxcccccccccccccccccccccchhhhhhhhhzcccccxhhhvAAAA",
"xhhhhhhhhhhhhhhhzcccccccccccccccccccccccxhhhhhhhxcccccccxhhhxAAA",
"hhhhhzcvvclhhhhhxcccccccccccccccccccccccchhhhhhxcccccccccchhhhzh",
"hhhhxAAAAAvhhhhhccccccccccccccccccccccccczhhhhxcccccccccccchhhhh"
};
