/* XPM */
static char *result[] = {
/* columns rows colors chars-per-pixel */
"64 64 29 1 ",
"  c #758C8E",
". c #758D8F",
"X c #768D8F",
"o c #768E90",
"O c #778E90",
"+ c #778E91",
"@ c #778F91",
"# c #788F91",
"$ c #788F92",
"% c #789092",
"& c #799093",
"* c #799193",
"= c #7A9194",
"- c #7A9294",
"; c #7A9295",
": c #7B9295",
"> c #7B9396",
", c #7C9396",
"< c #7C9497",
"1 c #7C9597",
"2 c #7D9598",
"3 c #7D9698",
"4 c #7E9799",
"5 c #7F989B",
"6 c #80999C",
"7 c #819A9D",
"8 c #829B9E",
"9 c #839C9F",
"0 c #849EA1",
/* pixels */
"   100000007.  O2222222222222222222222222&   =2222222222222>    ",
" o70000000008.  <222222222222222222222222X  &222222222222222-   ",
".7000000000007  &22222222222222222222222:  X<2222222222222222+  ",
"700000000000001  <2222222222222222222222O  $22222222222222222-  ",
"000000000000000% O222222222222222222222=   &22222222222222222: 7",
"0000000000000008  #2222222222222222222:    X22222222222222222#;0",
"0000000000000000>  *22222222222222222:      *222222222222222> 60",
"00000000000000001   =222222222222222:  ;64%  >2222222222222,X 40",
"0000000000000000>    $2222222222222-  400006.X<22222222222<X  %0",
"0000000000000000o     #22222222222=  50000008.X,222222222<+    5",
"800000000000000;       +<22222222&  4000000006 X>2222222<O     .",
"@0000000000000;         X<222222#  100000000004  >22222<X       ",
" ;00000000009*            *<22=   o000000000000;  =222>X X=:::$ ",
"  >000000009o                     @0000000000001   XOX  &222222<",
",X 40000008o  X:22:                600000000000o       *22222222",
"2<X 390004.  $22222=               *0000000000>       =222222222",
"22<+ .%%    *2222222&               ;000000001       -2222222222",
"222<X      >222222222+               ;0000003       =22222222222",
"2222<X    $2222222222,        X&&&O   ;00003       =222222222222",
"22222<X   :22222222222#     X,22222>X  *55*       =2222222222222",
"222222<X  -22222222222-    #<2222222>X           =22222222222222",
"2222222,  X22222222222-   =2222222222<X         $222222222222222",
"22222222:  $222222222>  X:222222222222<O       O2222222222222222",
"222222222O  >2222222-  X,22222222222222<O      :2222222222222222",
"222222222=  X<22222&  X,2222222222222222<X    X22222222222222222",
"222222222:   X,22:O  X<222222222222222222,    O22222222222222222",
"222222222-     OX   X<22222222222222222222:   X22222222222222222",
"222222222#          >2222222222222222222222*   ,2222222222222222",
"22222222>          *222222222222222222222222O  +2222222222222222",
"2222222<X         X2222222222222222222222222>   =222222222222222",
"2222222+          $22222222222222222222222222+   >22222222222222",
"222222#           &22222222222222222222222222&    >2222222222222",
"22222$            X22222222222222222222222222&     ,222222222222",
"2222=              >2222222222222222222222222#     X<22222222222",
"222$       XOX     O222222222222222222222222,       X>2222222222",
"22#       -222>&    *22222222222222222222222O         >222222222",
"<+       =222222,O   :222222222222222222222#           -22222222",
"X       &222222222$  X<2222222222222222222&    *5661.   =222222<",
"       O22222222222*  O<22222222222222222*    ;900006.   X:22<& ",
"      X<222222222222=  #2222222222222222=    ;00000007.         ",
"      :22222222222222*  #22222222222222*    ;0000000007.        ",
"     $2222222222222222+  =22222222222<#    ;000000000007.       ",
"     <2222222222222222=   &222222222,X    ;00000000000007.      ",
"    $22222222222222222-    #,222222=     *0000000000000007      ",
"    &22222222222222222#      -222=X     .80000000000000000>     ",
"    #2222222222222222,                  ;000000000000000008     ",
"     >222222222222222O                  1000000000000000000     ",
"      >2222222222222*                   %000000000000000006     ",
"       >22222222222>                     60000000000000000%     ",
"        -222222222>                      .800000000000000>   o%.",
";        +<222222<X                       .90000000000001   3000",
"03        X>2222<X        $:::*            o900000000003   40000",
"004         #=:-         <222222O           @9000000004   400000",
"0004                   X<22222222#           o7000000>   4000000",
"00001                 +<2222222222&           .70000;   10000000",
"00006                #2222222222222=            *1>.    60000000",
"00006               #222222222222222=                   60000000",
"00001              #22222222222222222=                  10000000",
"0004              X<222222222222222222#                  4000000",
"004               <22222222222222222222O          =222:X  400000",
"0>               :222222222222222222222<         =22222>   30000",
";               $22222222222222222222222-       :2222222,X  ;000",
"     %4661o     ,222222222222222222222222X     >222222222<X  .%.",
"    *900008.   O2222222222222222222222222&    -22222222222<     "
};
