/* XPM */
static char *result[] = {
/* columns rows colors chars-per-pixel */
"64 64 103 2 ",
"   c #876341",
".  c #8C6643",
"X  c #8F6945",
"o  c #916B46",
"O  c #956E48",
"+  c #9C744E",
"@  c #AA7B4F",
"#  c #A17750",
"$  c #A57B53",
"%  c #AE7F53",
"&  c #7FBC24",
"*  c #7EB634",
"=  c #7EB33B",
"-  c #779771",
";  c #7A9C74",
":  c #7D9E78",
">  c #80BE1F",
",  c #9B9F2F",
"<  c #9D9D31",
"1  c #AC8D3A",
"2  c #B3863F",
"3  c #B1893D",
"4  c #A89237",
"5  c #A09A32",
"6  c #A99138",
"7  c #8EAE27",
"8  c #8DAD29",
"9  c #96A52C",
"0  c #99A12E",
"q  c #91A929",
"w  c #86B622",
"e  c #8BB125",
"r  c #82BA21",
"t  c #82B83D",
"y  c #84C41F",
"u  c #85C423",
"i  c #8ACD22",
"p  c #88C72E",
"a  c #8ED522",
"s  c #8ED22C",
"d  c #90D723",
"f  c #93DB24",
"g  c #91D62B",
"h  c #90D135",
"j  c #9D904F",
"k  c #B68341",
"l  c #BA8044",
"z  c #BD844B",
"x  c #AB8357",
"c  c #B28153",
"v  c #BD8957",
"b  c #B3865B",
"n  c #BA8758",
"m  c #B5885D",
"M  c #BA8B5D",
"N  c #89BE4E",
"B  c #958E7C",
"V  c #83967D",
"C  c #AF8D66",
"Z  c #AF8E68",
"A  c #B08E67",
"S  c #BD8E61",
"D  c #B18F69",
"F  c #BF9061",
"G  c #B2936E",
"H  c #BC956E",
"J  c #AA9275",
"K  c #B49673",
"L  c #8AB966",
"P  c #88B66B",
"I  c #82A67D",
"U  c #86AE7B",
"Y  c #C08750",
"T  c #C18A55",
"R  c #C58F5C",
"E  c #C5905E",
"W  c #C69464",
"Q  c #C89667",
"!  c #C4976A",
"~  c #C89768",
"^  c #C6986B",
"/  c #C99869",
"(  c #8BC742",
")  c #8DC942",
"_  c #8BC34D",
"`  c #758C8E",
"'  c #7A8C8B",
"]  c #7F9F85",
"[  c #778E90",
"{  c #788F92",
"}  c #7B9295",
"|  c #7D9598",
" . c #7F989B",
".. c #898D83",
"X. c #8E9287",
"o. c #8E9389",
"O. c #9B9785",
"+. c #8D9A94",
"@. c #829A9D",
"#. c #85A885",
"$. c #84A295",
"%. c #83A09A",
"&. c #849EA1",
/* pixels */
"` ` ` | &.&.&.&.&.&.&.@.[ ` ` [ | | | | | | | | | | | | | | | | | | | | | | | | { { [ ` ` { | | | | | | | | | | | | | { [ [ ` ` ",
"` [ @.&.&.&.&.&.&.&.&.&.@.[ ` ` | | | | | | | | | | | | | | | | | | | | | | | | @.[ ' [ { | | | | | | | | | | | | | | | { [ ` ` ",
"` @.&.&.&.&.@.%.&.&.&.&.&.@.` ` [ | | o.| | | | | | | | | | } ] | | | | | | | | { [ ' ' | | | | | | | | | | @.} | | | | | { ` ` ",
" .&.&.&.&.&.%.$.P _ ) h f f f f f f f f f f f f f f f f f f f f f f f f f f f f f f f f d f f f f f f f g ( p N #.} | | | { ` ` ",
"&.&.&.&.&.$.L h a a a a d a d d f a a f a f a a a f a a a f a a a f d d d d d d d d d d d d d d d d a a a a a a s _ : } | { [ @.",
"&.&.&.&.%.L a a y y y y u & y & > > > > > > > > & & > > > y > > > > > > > > > > > > > > > > > > r r > > y y y y i f ) o.| { } &.",
"&.&.&.&.U s y & y y & > & & & & > > > > > > > > y & > > > > > > > > > > > > > > > > > > > > > > y & y & y > > > > y i N } ` @.&.",
"&.&.&.&._ u y & > > & & y & y & > > > > > > > > & & > > > > > > > > > > > > > > > > > > > > > > & & & & & > > > > > > i ; [ | &.",
"&.&.&.$.w > > > > > > > > > > > > > > > > > > > > > > > > > > > > > > > > > > > > > > > > > > > > > > > > > > > > > > y = { }  .",
"&.&.&.#.y > > > > > > > > > & y > > > > > > > > > > > > > > > > > > > > > > > > > > > > > > > > > > > > > > > > > > > > = } {  .",
"@.&.&.I r > > > > > > > > > > > > > > > > > > > > > > > > > > > > > > > > > > > > > > > > > > > > > > > > > > > > > > > = ` { [ ",
"} &.&.I r > > > > > > > > > > > > > > > > > > > > > > > > > > > > > > > > > > > > > > > > > > > y > > > > > > > > > > > * ` ` ` ",
"` } &.I > > > > > > > > > > > > > > > > > > > > > > > > > > > > > > > > > > > > > > > > > > > > & > > > & > > > > > > > = } [ ` ",
"` ` } I > > > > > > > > w q > > > > > > > > > > > > > > > > > 7 0 > > > > > > > > > > > > > > > & & 7 7 & & > > > > > > = | | | ",
"} ` ` : > > > > > > w e 3 k , w > > > > > > > > > > > > > > e 3 2 5 > > > > > > > > > > > > > > > q 1 k 9 & > > > > > > = | | | ",
"| | [ - > > > > > > 7 3 k k 2 , > > > > > > > > > > y > > 7 1 l l 2 < > > > > > > > > > > > > > 9 1 l l 3 q & > > > > & = | | | ",
"| | } ; & > > > > q 1 k l l l 2 , > > > > > > > > > > > q 4 l l l l 2 , > > > > > > > > > > > q 1 l l l l 2 0 > > > > > t @.{ @.",
"| | | : & & > > q 1 k l Y l Y l 3 5 e > > > > > > > > 0 4 l l Y Y l l 2 5 e > > > > > > > > 9 1 k l l l l l 3 0 > > > > t { @.{ ",
"| | | : & > > q 1 k @ z Y T Y l l 3 5 > > > > > > > 9 1 k l l Y Y Y l l 2 5 > > > > > > > 5 3 2 l Y Y T Y l l 2 5 > > > = @.{ @.",
"| | | : & > q 6 2 l Y T T R T Y l l 2 5 e > > > > q 4 l l l Y R T T l l l 3 5 > > > > > , 3 l l Y Y R R Y Y l l 2 5 7 > = { @.{ ",
"| | | : r 7 6 k l z T R R R R T Y l l 2 5 > > > 9 1 l l z Y R R R R T Y l l 2 , > > > , 1 l l Y Y R R R R T Y l l 2 5 > = } @.{ ",
"| | | : 8 1 l @ l v T R R R R R T z l l k 5 w q 2 l l % Y R R R R R R T Y l l 2 , > , 3 l l l Y R T R R R R Y Y l l 2 5 t { } @.",
"| | } V 2 l l l Y R R R R R R R R T Y l l k 1 2 l l z T R R R R R R R R T Y l l k 1 3 l l Y R R R R R R R R R T Y l l l j } } @.",
"| | } B l l Y Y R R R R R R R R R R T l l l l l l z T R R R R R R R R R R Y l l l l l l Y T R R R R R R R R R R T Y l % % @.} } ",
"| | | ..l l v R R R R R R R R R R R R R Y l l l z Y R R R R R R R R R R R R T Y l l % Y Y R R R R R R R R R R R T T Y l c } } @.",
"| | | ..l v R R R R R R R R R R R R R R T Y l l T R R R R R R E R R R R R R R T Y l l Y R R R R R R R R R R R R R R T Y x @.} } ",
"| | | ..n R R R R R R E W Q W R R R R R R T T T R R R R R R R W W E R R R R R R T Y T R R R R R R E W W W R R R R R R R b | @.} ",
"| | | X.R R R R R R E W Q Q W E R R R R R R R R R R R R R E E Q / W E R R R R R R R R R R R R R R Q ~ ~ Q R R R R R R R A } @.} ",
"| | | X.W R R R R R W Q ~ ~ ~ Q R R R R R R R R R R R R R Q Q Q / Q W E R R R R R R R R R R R E W Q ~ / ~ Q R R R R R R A | | | ",
"| | | X.R R R R R W Q ~ / / / ~ Q R R R R R R R R R R E E Q Q / / / / W E R R R R R R R R R E W Q ~ / / ~ ~ Q R R R R R D | | | ",
"| | | X.M R R R W Q ~ ~ / / / ~ / Q R R R R R R R R R E / / / / / / / Q W E R R R R R R R E W Q ~ / / / / ~ ~ W W R R R D | | | ",
"| | | X.W R R W Q ~ ~ ~ / / / / / Q Q E R R R R R R W / / / / / / / / / / Q E R R R R R E W ~ ~ / / / / / ~ ~ ~ Q E R R D | | | ",
"| | | o.R R W / / / / / / / / / / / / ~ R R R R R W / / / / / / / / / / / Q Q R R R R E W / / / / / / / / / / / / Q E R D | | | ",
"| | | o.R W ~ / / / / / / / / / / / / / ! R % $ % S ~ ^ / / / / / / / / Q Q m % $ c R W Q / / / / / / / / / / / / ~ W E D | | | ",
"| | | ..S / / / / / / / / / / / / / / / W $       X % ^ / / / / / / / / Q b X       % Q / / / / / / / / / / / / / / / Q D | | | ",
"| | [ ..! / / / / / / / / / / / / / / / S o         # W / / / / / / / / W +         o F / / / / / / / / / / / / / / / / K | | | ",
"| [ ` ..! / / / / / / / / / / / / / / / S .         # W / / / / / / / / F +         X S / / / / / / ^ ~ ~ / / / / / / / K | | | ",
"[ ` ` ..! / / / / / / / / / / / / / / / W O       . % ! / / / Q Q ~ / ^ ! $ .       # W / / / / / / Q Q ~ / / / / / / / K | | | ",
"` ` ` ..~ / / / / / / Q E E Q / / / / / ! S + o o # S ~ / / Q W W Q Q Q Q S # X o # M Q / / / / / Q W E ~ ~ / / / / ~ ~ K } { [ ",
"` ` [ ../ / / / / / / E R R E Q / / / / ~ ! S % S E ! ~ / Q W R R R Q Q Q Q S m m S Q Q / / / / Q W R R E Q / / / / Q Q K ` ` [ ",
"` ` ` ..! ^ ^ / / Q E R R R R E W / / / / / / ~ ~ ~ ~ / ~ W R R R R E Q ~ ~ ~ ~ ~ ~ ~ / / / / Q W R R R R E Q Q / / / / K ` ` ` ",
"` ` ` ..! ! / / Q W R R R E R R E / / / / / / / / / / / W R R R R R R E ~ ~ ~ ~ / / / / ~ Q Q W R R R R R R W Q / / / / K ` ` ` ",
"` ` ` ..! / / ~ W R R R R R R R R W W W ~ / / / W % o                     . + S ~ / / / Q Q W R R R R R R R R W Q Q Q / G ` ` ` ",
"` ` ` ..! / W W E R R R R R R R R R W W ~ ~ / / R +                         . % ~ / / ~ Q W R R R R R R R R R R E Q Q / J ` ` ` ",
"` ` ` ..^ Q W R R R R E R R R R R R R R W ~ ~ ~ W # X X . X o o . . X X X X O c Q / ~ Q W R R R R R R R E R R R R E Q Q G ` ` ` ",
"` ` ` ..! W R R R R E E R R R R R R R R W W / W E Y % % % % % % % % % % % % c R Q ~ W W R R R R R R R R R R R R R R R Q G ` ` ` ",
"` ` ` ..W R R R R R R R R R R R R R R R R W W W R R R R R R R E R R R R R R R R W W W R R R R R R R R R R R R R R R R E G ` ` ` ",
"` ` ` ..E R R R R R R R R R R R R R R R R R R R R R R R R R R R R R E R R R R R R R R R R R R R R R R R R R R R R R R R C ` ` ` ",
"` ` ` ..S R R R R R R R R R R R R R R R R R R R R R R R R R R R R R R R R R R R R R R R R R R R R R R R R R R R R R R R S ` ` ` ",
"` ` ` ..R R R R R R R R R R R R R R R R R R E R R R R R R R R R R R R R R R R R R R R R R R R R R R R R R R R R R R R R A [ } [ ",
"{ ` ` ..S R R R R R R R R E E R R R R R R R R R R R R R R R R R E R R R E R R R R R R R R R R R R R E E R E R R R R R R Z &.&.&.",
"&.{ ` ..R R R R R R R R W / W R R R R R R R R R R R R R R R R Q / W R R R R R R R R R R R R R R R R Q / E R R R R R R R G &.&.&.",
"&.&.| ..R R R R R R R W / / / W E R R R R R R R R R R R R E Q Q / / E R R R R R R E R R R R R R E Q / / Q E R R R R R R G &.&.&.",
"&.&.&.o.R R R R R R W ~ / / / W E E R R R R R R E E R E R Q Q / / / Q E R R R R R R R R R R R W Q Q / / Q Q E R R R R R A &.&.&.",
"&.&.&.+.S R R R E W ~ / / / / / Q E R R R R R R E R R R Q Q / / / / / Q E R R R R R R R R R E Q Q / / / / / Q W R R R R J &.&.&.",
"&.&.&.&.S R R E W ~ / / / / / / Q Q W R R R R R R R E Q Q / / / / / / Q Q W E R R R R R R R Q ~ / / / / / / Q Q W R R R O.&.&.&.",
"&.&.&.&.J R R W ~ ~ / / / / / / / ~ Q W R R R R R R Q ~ / / / / / / / / Q Q Q R R R R R W Q ~ / / / / / / / / ~ Q W R E +.&.&.&.",
"&.&.&.&.X.W W W ~ / / / / / / / / / ~ Q E R R R R Q Q ~ / / / / / / / / / Q Q E R R R E W Q / / / / / / / / / / Q Q W J &.&.&.&.",
"&.&.&.@.` B W / / / / / / / / / / / ~ Q ~ Q R R Q ~ ~ / / / / / / / / / / / / Q W R R Q Q ~ / / / / / / / / / / ~ ~ K +.&.&.&.&.",
"&.&.} ` ` ' X.H / / / / / / / / / / / ~ ~ ~ W Q ~ ~ / / / / / ~ / / / / / / / / ~ W ~ ~ ~ ~ / / / / / / / / / / Q J +.@.&.&.&.&.",
"&.} ` ` ` ` ` ..J ! / / / / / / ~ ~ / Q ~ ~ Q Q ~ ~ ~ / ~ / / ~ ~ Q ~ Q / Q / / ~ ~ ~ ~ ~ ~ ~ ~ / ~ / / Q ^ ^ K B ' ` | &.&.&.&.",
"{ ` ` ` ` ` ` ` ` ` ` ` ` ` ` ` [ | @.| | | | | @.} } @.| | @.} | } @.} @.} } @.} ` ` ` ` ` [ [ } | | | | | | | } [ ` ` } &.&.&.",
"` ` ` ` [ { | | | | ` ` ` ` ` ` | | | | | | | | | | | | | | | | | | { @.@.} @.} | [ ` ` ` ` ` } | | | | | | | | | | [ ` ` ` [ [ ",
"` ` ` ` } &.&.&.&.&.&.` ` ` ` [ | | | | | | | | | | | | | | | | | | @.} } } @.} | { ` ` ` ` } | | | | | | | | | | | } ` ` ` ` ` "
};
