/* XPM */
static char *result[] = {
/* columns rows colors chars-per-pixel */
"64 64 105 2 ",
"   c #876341",
".  c #8A6542",
"X  c #8E6945",
"o  c #936C47",
"O  c #976F49",
"+  c #97704B",
"@  c #9B724C",
"#  c #A7794E",
"$  c #A07750",
"%  c #A47A52",
"&  c #A97D54",
"*  c #7FBC25",
"=  c #7EB535",
"-  c #7EB33B",
";  c #779771",
":  c #7A9C74",
">  c #7E9D79",
",  c #80BE1F",
"<  c #9B9F2F",
"1  c #9E9C32",
"2  c #AD8C3B",
"3  c #B3863F",
"4  c #B1883D",
"5  c #A59536",
"6  c #A19933",
"7  c #8CAF26",
"8  c #95A52C",
"9  c #99A12E",
"0  c #90AB29",
"q  c #86B523",
"w  c #8AB224",
"e  c #83BA21",
"r  c #83BB3B",
"t  c #84C41F",
"y  c #85C423",
"u  c #8ACD22",
"i  c #88C72E",
"p  c #8ED522",
"a  c #8ED22C",
"s  c #90D723",
"d  c #93DB24",
"f  c #91D62B",
"g  c #8CCA3E",
"h  c #8FD232",
"j  c #90D135",
"k  c #9E8F4F",
"l  c #B68341",
"z  c #BA8044",
"x  c #BD854C",
"c  c #AB8257",
"v  c #BF8750",
"b  c #BC8857",
"n  c #B4865C",
"m  c #B5885D",
"M  c #BB8A5C",
"N  c #89A642",
"B  c #89BD4F",
"V  c #88BB54",
"C  c #958F7D",
"Z  c #84947D",
"A  c #AF8D66",
"S  c #B08C65",
"D  c #BC8E61",
"F  c #B18F69",
"G  c #BF9063",
"H  c #B2936E",
"J  c #BC956E",
"K  c #AA9275",
"L  c #B49672",
"P  c #B49978",
"I  c #8AB966",
"U  c #88B66B",
"Y  c #82A57C",
"T  c #83A87A",
"R  c #C08751",
"E  c #C28A55",
"W  c #C58F5C",
"Q  c #C5905E",
"!  c #C18F60",
"~  c #C69464",
"^  c #C89667",
"/  c #C4966A",
"(  c #C89768",
")  c #C4986C",
"_  c #C99869",
"`  c #8DC942",
"'  c #8CC44C",
"]  c #758C8E",
"[  c #7A8C8B",
"{  c #778E90",
"}  c #788F92",
"|  c #7B9295",
" . c #7D9598",
".. c #7F989B",
"X. c #898D82",
"o. c #8C9086",
"O. c #8E9389",
"+. c #909589",
"@. c #9D9B89",
"#. c #8E9B96",
"$. c #829B9D",
"%. c #80A084",
"&. c #86AB82",
"*. c #84A295",
"=. c #849EA1",
/* pixels */
"] ] ]  .=.=.=.=.=.=.=.$.{ ] ] {  . . . . . . . . . . . . . . . . . . . . . . . . .} { ] ] }  . . . . . . . . . . . . . .] ] ] ] ",
"] { $.=.=.=.=.=.=.=.=.=.$.{ ] ]  . . . . . . . . . . . . . . . . . . . . . . . . .{ ] ] }  . . . . . . . . . . . . . . .| ] ] ] ",
"] $.=.=.=.=.=.$.=.=.=.=.=...] ] }  . .O. . . . . . . . . . . . . . . . . . . . .} [ [ X. . . . . . . . . . . . . . . . . .] ] ] ",
"..=.=.=.=.=.=.*.U ' ` j d d d d d d d s d d d d d d d d d d d d d d d d d d d d d d d d d d d d d d d d f g g B Y |  . . .} ] ] ",
"=.=.=.=.=.*.I h s s s s d s s s p s p p p p p p s s s s s s d p s s s s s s s s d p d p p p p p s s d p p s s s a ' Y  . . .] $.",
"=.=.=.=.*.I s u u t t , * , , , , , t , t , , , , , , , , , , , , , , , , , , , , , , , , , , , , e , , t y t t u d g [  .} | $.",
"=.=.=.=.&.a t t , , , , , , , , , , , , , , , , , , , , , , , , , , , , , , , , , , , , , , , , , , , , * , , , * t p B } ] $.=.",
"=.=.=.=.V y t * , , , , , , , , , , , , , , , , , , , , , , , , , , , , , , , , , , , , , , , , , , , , * * , , , , t u : ]  .=.",
"=.=.=.*.i , , , , , , , , , , , , , , , , , , , , , , , , , , , , , , , , , , , , , , , , , , , , , , , , , , , t * * t r ] ] $.",
"=.=.=.&.e , , , , , , , q q , , , , , , , , , , , , , , , , , , , * , , , , , , , , , , , , , , , , , , , , , , * * * * r [ ] ..",
"$.=.=.T e t , , , , , , 9 6 w , , , , , , , , , , , , , , , , < 6 7 , , , , , , , , , , , , , , , w < 6 w , , , , , , t = ] ] ] ",
"} =.=.T e , , , , , , 9 3 l 5 w , , , , , , , , , , , , , , < 4 3 2 , , , , t , , , , , , , , , , 6 3 z 5 , , , , , , , = ] ] ] ",
"{ } =.Y q , , , , , < 3 l z z 5 w , , , , , , , , , , , , 8 3 z z l 5 w , , , , , , , , , , , , 6 l z z 3 5 , , , , , , = | { ] ",
"] ]  .%., , , , , 9 3 z # z z z 5 w , , , , , , , , , , 8 4 z z z z z 5 w , , , , , , , , , , < 3 z z z z z 5 w , , , , -  . . .",
" .] ] > , , , , 9 4 z z z R z z l 6 w , , , , , , , , < 4 z z R R z z z 6 w , , , , , , , , < 3 z z z z z z 3 6 q , , , -  . . .",
" . .] ; , , , 8 4 z z R E W R z z l 5 0 , , , , , , < 3 z z R E E R # z z 5 w , , , , , , 6 3 z z R E W R R # l 5 w , * -  . . .",
" . . .; * e 8 2 z R z E W W W R z z z 5 7 , , , , < 3 z z R E W W W R z z 3 6 7 , t , q 6 3 z z R E W W W R z z z 6 w , w  . . .",
" . . .: q 8 2 z # x R W W W W W R R z 3 5 7 , , < 4 z z R R W W W W E R z z 3 6 w , w < 3 z z R R W W W W W R z z 3 5 7 -  . . .",
" . . .> 9 4 # R x E W W W W W W R R R z 3 2 8 1 4 z z R R W W W W W E W R R z 3 6 0 6 3 z # R E W W W W W W W R R z z 5 N  . . .",
" . . .Z 4 z z z R W W W W W W W E E R z z 3 2 3 z z R E E E W W W W W W R R z z 3 2 l z z R E W W W W W W W E W R z z 3 k  . . .",
" . .| C l # R R W W W W W W W W W W E R z z z z # R E W W W W W W W W W W E R z z z z z R E W W W W W W W W W W W R z l c  . . .",
" . . .X.z x E W W W W W W W W W W W W W R z z z x E W W W W W W W W W W W W W R z z z R W W W W W W W W W W W W W W E z c  . . .",
" . .| Z R E W W W W W W W ~ W W W W W W W R z R W W W W W W W W Q W W W W W W W R z R R W W W W W W W W W W W W W W W v c  . . .",
" . .#.+.E W W W W W W W ~ ~ ~ W W W W W W W E R W W W W W W ! ^ _ W W W W W W E W R W W W W W W W W ^ ^ Q W W W W W Q W S  . . .",
" . . .O.! W W W W W Q ~ ^ _ ^ ~ W W W W W W W W W W W W W W ~ ^ _ ^ Q W W W W W W W W Q W W W W W ^ _ _ ( W W W W W W W F  . . .",
" . . .O.W W W W Q Q ~ ( _ _ _ ^ Q W W W W W W W Q W W W ~ ~ ^ ^ _ ^ ^ Q W W W W W W W W W W W W ^ ( _ _ ( ^ Q W W W W W F  . . .",
" . . .o.! W W W ~ ~ ^ ( _ _ _ ^ _ Q W W Q W W W W W W Q ^ ^ _ _ _ _ _ ^ Q W W W W W W W W W Q ^ ^ ( _ _ _ ( ~ ~ W W W W F  . . .",
" . . .O.W W W ! ~ ^ ( _ _ _ _ _ _ _ Q W W W W W W W Q ^ ^ _ _ _ _ _ _ ^ ^ ^ W W W W W W W ~ ^ ^ _ _ _ _ _ _ ^ ^ W W W W F  . . .",
" . . .o.W W W ~ ~ ^ _ _ _ _ _ _ _ _ ^ Q W W W W W Q ~ _ _ _ _ _ _ _ _ _ ^ ^ Q W W W W W ~ ^ ( _ _ _ _ _ _ _ _ ( ~ ~ W W F  . . .",
" . . .O.W ! ~ ( ^ _ _ _ _ _ _ _ _ _ ^ ^ ~ W E b b ~ ^ ^ _ _ _ _ _ _ _ _ _ ^ ~ W b E W ! ~ ( _ _ _ _ _ _ _ _ _ _ ^ ^ ~ W F  . . .",
" . . .o.! ~ ^ ) _ _ _ _ _ _ _ _ _ _ _ _ ~ b @ O @ % ~ ^ _ _ _ _ _ _ ( _ ( ! $ O O @ M ~ ^ ( _ _ _ _ _ _ _ _ _ _ _ _ ^ ! F  . . .",
" . . .O./ ^ ^ ^ _ _ _ _ _ _ _ _ _ _ _ _ ~ @       . & ~ _ _ _ _ _ _ ( ( ^ & .       $ ~ ( _ _ _ _ _ _ _ _ _ _ _ _ _ ( ~ L  . . .",
"} $.$.O._ _ _ _ _ _ _ _ _ _ _ _ _ _ _ _ D .         @ / _ _ _ _ _ _ _ _ ! @         X G _ _ _ _ _ _ _ _ _ _ _ _ _ _ _ _ L $.} $.",
"$.} $.O./ _ _ _ _ _ _ _ ^ ^ _ _ _ _ _ _ D o       . $ ( _ _ _ ^ ( ( _ _ ~ @         o ! _ _ _ _ _ _ _ / ^ _ _ _ _ _ _ _ L $.$.} ",
"} $.$.o./ _ _ _ _ _ _ ^ ^ ^ ^ _ _ _ _ _ ~ $ .     o & _ _ _ _ ^ ^ ^ ^ _ ^ c X     . % ^ _ _ _ _ ^ ^ ^ ^ ^ _ _ _ _ _ _ _ H | } $.",
"$.} } o./ _ _ _ _ _ ^ ^ Q Q ^ ^ _ _ _ / ^ D $ O @ & ! ^ _ _ ~ ~ ! ^ ^ ^ _ G & + @ % ! _ _ _ _ _ _ ~ ~ ! ^ ^ _ ^ _ _ _ _ H $.| | ",
"} } ] X./ _ _ _ _ ^ ^ Q W W Q ^ ( _ _ _ _ / G D D / ^ ( ^ ^ Q W W ~ ~ ^ ^ ) ~ D D ! _ _ _ _ _ ^ ^ ~ W W ~ ~ ^ ^ _ _ _ _ L |  . .",
"} ] ] X./ _ _ _ _ ^ Q Q W W W Q ~ ( _ _ _ _ _ _ _ _ _ ( _ Q Q W W W W ~ ^ _ ) ^ _ _ _ _ _ _ _ ^ ! W W W W W ^ ^ _ _ _ _ L $. . .",
"] ] ] X._ ( _ ^ ^ Q Q W W W W W Q ~ ( _ _ _ _ _ ( D & & & # # # # # $ & & & m ~ ^ _ _ _ _ ^ ^ W W W W W W W ~ ~ _ _ _ _ H  .} ] ",
"] ] ] X.( _ _ ^ Q W W W W W W W W Q ~ ( _ _ _ _ ~ & X X . . . . . . . . X . o n ^ _ _ _ ^ ^ ~ W W W W W W W W W ~ _ _ _ H ] ] ] ",
"] ] ] X./ / / ! W W W W W Q W W W W Q ~ ( _ _ _ Q O                     .   X & ^ _ _ _ ^ W W W W W W W W W W W ! ~ _ _ J ] ] ] ",
"] ] ] X./ / ! Q W W W W W W W W W W W Q ~ ( _ _ ^ # .                   . . o b ^ _ _ ^ W W W W W W W W W W W W W ! ^ _ H ] ] ] ",
"] ] ] X.^ ~ Q W W W W W W W W W W W W W Q ~ ( ^ Q Q W W W W W W W W W W W W W W ^ ^ ^ ! W W W W W W W W W W W W W W ! ~ F ] ] ] ",
"] ] ] X.! W W W W W W W W W W W W W W W W W ~ Q W W W W W W W W W W W W W W W W W ~ ! W W ~ W W W W W W W W W W W W W W H ] ] ] ",
"] ] ] X.! W W W Q W W W W W W W W W W W W W W W W W W W W W W W W W W W W W W W W W W W W W W W W W W W W W W W W W W W S ] ] ] ",
"] ] ] X.! W W W W W W W W W W W W W W W W W W W Q W W W W W W W W W W W W W W W W W W W W W W W W W W W W W W W W W W W S ] ] ] ",
"] ] ] X.! W W W W Q W W Q W W W Q W W W W W W W W W W W W W Q W W W W W W W W W W W W W W W W W W W W W W W W W W W W W S ] ] ] ",
"] ] [ X.! W W W Q W W W W ^ Q W W W W W W W W W W W W W W W Q Q ~ W W W W W W W W W W W W W W W W W ~ ^ ~ W W W W W W ! A ] ] ] ",
"] ] ] X.! W W W W W W Q ^ ^ ^ ! W W W W W W Q Q Q W W W W W Q ^ ~ ~ W W W W W W W W W W W W W W W W ^ ^ ~ W W W W W W W S [ { { ",
"] ] ] X.! W ! W W W Q ^ ^ ^ ^ ^ Q W W W W W W W W W W Q Q Q ^ ^ _ _ ~ W W W W W W W W W W W W W ~ ^ ^ _ ^ ~ W W W W W W S } } ] ",
"} ] ] X.! W W Q W Q ^ ^ _ _ ^ ^ ~ W W W W W W W W Q W W Q ^ _ _ _ _ _ ~ W W W W W W W W W W W ~ ^ ^ _ _ ^ ^ ~ W W W W W F =.=.=.",
"=.} ] X.W W W Q W ^ ^ ^ _ _ ^ ^ _ ~ W W W W W W W W W Q ^ _ _ _ _ _ _ _ ~ W W W W W W W W W ! ^ _ _ _ _ _ ^ ^ ^ W W W W H =.=.=.",
"=.=.$.X.! W W ! ^ ^ _ _ _ _ _ _ _ ( ~ W W W W W W W Q ^ _ _ _ _ _ _ _ _ _ ~ W W W W W W W ~ ~ _ _ _ _ _ _ _ _ _ ~ W W W J =.=.=.",
"=.=.=.O.! W ! ^ ^ _ _ _ _ _ _ _ _ _ ( ~ Q W W W W Q ^ _ _ _ _ _ _ _ _ _ _ _ ~ W W W W W ! ^ _ _ _ _ _ _ _ _ _ _ ^ ~ W W L =.=.=.",
"=.=.=.#.^ ! ^ ( _ _ _ _ _ _ _ _ _ _ _ ( ~ Q Q W Q ^ ^ _ _ _ _ _ _ _ _ _ _ _ ^ ~ W W W ~ ^ _ _ _ _ _ _ _ _ _ _ _ _ ^ ~ ~ @.=.=.=.",
"=.=.=.$./ ^ / _ _ _ _ _ _ _ _ _ _ _ _ ( ( ~ Q Q ^ _ _ _ _ _ _ _ _ _ _ _ _ _ _ ^ ~ W ~ ^ ^ _ _ _ _ _ _ _ _ _ _ _ _ _ ^ ^ @.=.=.=.",
"=.=.=.=.@._ _ _ _ _ _ _ _ _ _ _ _ _ _ _ ( ^ ~ ^ ( _ _ _ _ _ _ _ _ _ _ _ _ _ _ _ _ ^ ^ ^ _ _ _ _ _ _ _ _ _ _ _ _ _ _ _ _ #.=.=.=.",
"=.=.=.$.+./ _ _ _ _ _ _ _ _ _ _ _ _ _ _ _ ^ ( ( _ _ _ _ _ _ _ _ _ _ _ _ _ _ _ _ _ _ / _ _ _ _ _ _ _ _ _ _ _ _ _ _ _ _ @.#.=.=.=.",
"=.=.=.$.X.C / ( _ _ _ _ _ _ _ _ _ _ ( ^ _ _ _ _ _ _ _ _ _ _ _ _ _ _ _ _ _ _ _ _ _ _ _ _ _ _ _ _ _ _ _ _ _ _ _ _ _ ^ P #.=.=.=.=.",
"=.=. .[ [ [ o.J _ _ _ _ _ _ _ _ _ _ ( / _ _ _ _ _ _ _ _ _ _ _ _ _ _ _ _ _ _ _ _ _ _ _ _ _ _ _ _ _ _ _ _ _ _ _ _ _ H O.=.=.=.=.=.",
"=.| ] ] ] ] ] X.K / _ _ _ _ _ _ / / _ ~ ^ ^ ^ / _ ( _ _ _ _ _ / ^ ~ ( ( _ ~ ~ ^ _ _ _ _ _ _ _ _ _ _ _ _ ^ ^ _ H X.[ ]  .=.=.=.=.",
"} ] ] ] ] ] ] ] ] ] ] ] [ } [ } } | $.$.$.} $.$.$.| } $.| | $.| | $.$.} $.$.$.$.} ] ] ] ] ] ] ] |  . . .$.}  . .$.] ] ] | =.=.=.",
"] ] ] ] ] }  .$.$.| ] ] ] ] ] ] } $.$.| | $.$.} $.} $.} | $.| $.$.} } $.} $.} $. .} ] ] ] ] ] |  . . . .} $.} $.} $.{ ] ] { } { ",
"] ] ] ] } $.=.=.=.=.$.] ] ] ] } | $.} | $.} | $.} $.} $.| $.| | | $.$.} $.} $.}  .} ] ] ] ] |  . . . . .$.} $.} $.} | ] ] ] { { "
};
