/* XPM */
static char *result[] = {
/* columns rows colors chars-per-pixel */
"64 64 196 2 ",
"   c #AD382C",
".  c #AF382C",
"X  c #B0392C",
"o  c #B1392C",
"O  c #B0392D",
"+  c #B2392D",
"@  c #B43A2D",
"#  c #B53A2D",
"$  c #B63A2D",
"%  c #B73B2E",
"&  c #B93B2E",
"*  c #C23E30",
"=  c #C94032",
"-  c #E54C3D",
";  c #E54D3D",
":  c #E74C3C",
">  c #E54D3E",
",  c #E44E3E",
"<  c #9F746F",
"1  c #9A7672",
"2  c #9E7672",
"3  c #AA6D67",
"4  c #B36F68",
"5  c #A6706A",
"6  c #A7706A",
"7  c #A8716B",
"8  c #AA736E",
"9  c #AE726D",
"0  c #AB756F",
"q  c #B6746C",
"w  c #A07570",
"e  c #A27773",
"r  c #A37773",
"t  c #AB7570",
"y  c #A37976",
"u  c #A37A76",
"i  c #A27A77",
"p  c #A47975",
"a  c #AF7A75",
"s  c #AD7B76",
"d  c #A87F7B",
"f  c #A97F7B",
"g  c #DE5243",
"h  c #DC5345",
"j  c #D85446",
"k  c #D95547",
"l  c #DA5547",
"z  c #D95548",
"x  c #DA5649",
"c  c #D0584C",
"v  c #D05B4F",
"b  c #9A807D",
"n  c #99807E",
"m  c #A7807C",
"M  c #7D8788",
"N  c #758C8E",
"B  c #758D8F",
"V  c #768D8F",
"C  c #768E90",
"Z  c #778E90",
"A  c #778E91",
"S  c #778F91",
"D  c #788F91",
"F  c #788F92",
"G  c #789092",
"H  c #799093",
"J  c #799193",
"K  c #7A9194",
"L  c #7A9294",
"P  c #7A9295",
"I  c #7B9295",
"U  c #7B9396",
"Y  c #7C9396",
"T  c #7C9497",
"R  c #7C9597",
"E  c #7D9598",
"W  c #7D9698",
"Q  c #7E9699",
"!  c #7E9799",
"~  c #7F989B",
"^  c #818585",
"/  c #868E8F",
"(  c #898B8C",
")  c #948582",
"_  c #948484",
"`  c #9F8784",
"'  c #849091",
"]  c #8F9596",
"[  c #80999C",
"{  c #819A9D",
"}  c #829A9E",
"|  c #829B9E",
" . c #839C9F",
".. c #909394",
"X. c #A48481",
"o. c #849EA1",
"O. c #859FA2",
"+. c #87A2A5",
"@. c #8AA6A8",
"#. c #8AA7A9",
"$. c #8BA7A9",
"%. c #8BA8AA",
"&. c #8CA9AA",
"*. c #8DA9AB",
"=. c #8DA9AC",
"-. c #8DAAAC",
";. c #8EAAAD",
":. c #8EABAD",
">. c #8FABAE",
",. c #8FACAD",
"<. c #8FACAF",
"1. c #94A8AA",
"2. c #90ACAF",
"3. c #90ADAF",
"4. c #91ADB0",
"5. c #91ADB1",
"6. c #90AEB0",
"7. c #91AEB1",
"8. c #93AFB3",
"9. c #97ADB0",
"0. c #9EAEB0",
"q. c #93B1B3",
"w. c #94B1B4",
"e. c #95B2B4",
"r. c #96B3B6",
"t. c #9DB1B4",
"y. c #98B5B8",
"u. c #98B6B8",
"i. c #99B7B9",
"p. c #9AB9BA",
"a. c #9CBBBD",
"s. c #9EBCBE",
"d. c #9FBDBF",
"f. c #A2B2B3",
"g. c #A1B2B5",
"h. c #A8BABC",
"j. c #A2BFC1",
"k. c #A3BFC1",
"l. c #A5C1C3",
"z. c #A6C2C4",
"x. c #A7C2C4",
"c. c #AEC7C9",
"v. c #AFC8CA",
"b. c #B4CBCC",
"n. c #B4CCCD",
"m. c #B6CCCE",
"M. c #BDC9CB",
"N. c #BDCBCD",
"B. c #B8CECF",
"V. c #BBD0D1",
"C. c #BCD1D2",
"Z. c #C1CBCC",
"A. c #C0CBCD",
"S. c #C1CED0",
"D. c #C4D1D2",
"F. c #C6D0D2",
"G. c #C2D5D7",
"H. c #CBD4D4",
"J. c #C5D7D8",
"K. c #CCD7D8",
"L. c #CBDBDC",
"P. c #CEDDDE",
"I. c #D0DADB",
"U. c #D1DADB",
"Y. c #D4DBDC",
"T. c #D0DEDF",
"R. c #D4E1E2",
"E. c #D8E0E1",
"W. c #DAE1E1",
"Q. c #DBE3E4",
"!. c #DAE5E6",
"~. c #DEE4E4",
"^. c #DEE4E5",
"/. c #DCE7E7",
"(. c #E1E6E7",
"). c #E0E7E7",
"_. c #EEF1F2",
"`. c #F1F4F5",
"'. c #F3F5F5",
"]. c #F2F6F6",
"[. c #F4F6F6",
"{. c #F5F7F8",
"}. c #F5F8F8",
"|. c #F6F9F9",
" X c #F8F9F9",
".X c #F8FAFA",
"XX c #F9FAFB",
"oX c #F9FBFB",
"OX c #FAFBFB",
"+X c #FBFCFC",
"@X c gray99",
"#X c #FCFDFD",
"$X c #FDFDFD",
"%X c #FDFEFE",
"&X c #FEFEFE",
"*X c white",
/* pixels */
"N N N R o.o.o.o.o.o.o.{ B N N Z E E E E E E E E E E E E E E E E E E E E E E E E E H N N N K E E E E E E E E E E E E E U N N N N ",
"N C { o.o.o.o.o.o.o.o.o.| B N N T E E E E E E E E E E E E E E E E E E E E E E E E V N N H E E E E E E E E E E E E E E E L N N N ",
"B { o.o.o.o.o.o.o.o.o.o.o.{ N N H E E E E E E E E E E E E E E E E E E E E E E E I N N V T E E E E E E E E E E E E E E E E A N N ",
"{ o.o.o.o.o.9.S.Q.).`.*X*X*X*X*X*X*X*X*X*X*X*XE E E E E E E E E E E E E E E E E Z *X*X*X*X*X*X*X*X*X*X*X*X'.^.W.A.1.E E E L N N ",
"o.o.o.o.o.N..X+X$X%X&X*X*X*X*X*X*X*X*X*X*X*X*XE E E E E E E E E E E E E E E E K N *X*X*X*X*X*X*X*X*X*X*X*X&X$X#X+X XM.E E I N { ",
"o.o.o.o.D.*X+X/.C.n.z.a.a.a.a.a.a.a.a.a.a.a.a.E E E E E E E E E E E E E E E I N N a.a.a.a.a.a.a.a.a.a.a.a.l.n.V.!.OX*XF.E D P o.",
"o.o.o.h.oXOXB.a.a.a.a.a.a.a.a.a.a.a.a.a.a.a.a.E E E E E E E E E E E E E E I N N N a.a.a.a.a.a.a.a.a.a.a.a.a.a.a.a.m.|.*Xg.N [ o.",
"o.o.o.E.$XP.a.a.a.a.a.a.a.a.a.a.a.a.a.a.a.a.a.E E E E E E E E E E E E E I N N P [ a.a.a.a.a.a.a.a.a.a.a.a.a.a.a.a.a.L.*XY.N ! o.",
"o.o.o.{.&Xx.a.a.p.r.q.8.8.8.8.8.>.*.*.*.*.;.2.E E E E E E E E E E E E L N N ! o.o.8.8.5.=.=.<.2.2.2.2.2.2.6.w.i.a.a.z.*X[.N G o.",
"o.o.o.*X*Xa.a.a.e.+.O.o.o.o.o.o.C N N N N N D E E E E E E E E E E E K N N ~ o.o.o.o.o.o.| B V Y E E E E E Q } 4.a.a.a.*X*XN N ~ ",
"| o.o.*X*Xa.a.a.8.o.o.o.o.o.o.P N N N N N N N A T E E E E E E E E H N N ! o.o.o.o.o.o.o.o.[ N V U E E E E E E ;.a.a.a.*X*XN N B ",
"S o.o.*X*Xa.a.a.8.o.o.o.o.o.P N N N N N N N N N V T E E E E E E D N N R o.o.o.o.o.o.o.o.o.o.! N N U E E E E E -.a.a.a.*X*XN N N ",
"N P o.*X*Xa.a.a.8.o.o.o. .J N N N N N N N N N N N N J T E E K N N N C o.o.o.o.o.o.o.o.o.o.o.o.P N N K E E E U $.a.a.a.*X*XI F N ",
"N N U *X*Xa.a.a.8.o.o. .C N N N N N N N N N N N N N N N N N N N N N S o.o.o.o.o.o.o.o.o.o.o.o.R N N N V Z V N @.a.a.a.*X*XE E T ",
"Y V N *X*Xa.a.a.8.o.| C N N V I E E I N N N N N N N N N N N N N N N N [ o.o.o.o.o.o.o.o.o.o.o.C N N N N N N N &.a.a.a.*X*XE E E ",
"E T V *X*Xa.a.a.8.! B N N F E E E E E K N N N N N N N N N N N N N N N J o.o.o.o.o.o.o.o.o.o.U N N N N N N N K ;.a.a.a.*X*XE E E ",
"E E T *X*Xa.a.a.*.N N N J E E E E E E E H N N N N N N N N N N N N N N N P o.o.o.o.o.o.o.o.R N N N N N N N L E ;.a.a.a.*X*XE E E ",
"E E E *X*Xa.a.a.*.N N U E E E E E E ' _ b 2 < < < < < < < < < < < < < < < e f f f f m ` ) M N N N N N N K E E ;.a.a.a.*X*XE E E ",
"E E E *X*Xa.a.a.*.N F E E E E E E / 9 v l , : : : : : : : : : : : : : : : : : : : : > l c 3 ^ N N N N K E E E ;.a.a.a.*X*XE E E ",
"E E E *X*Xa.a.a.*.N I E E E E E E b z : : : : : : : : : : : : : : : : : : : : : : : : : : j 1 N N N K E E E E ;.a.a.a.*X*XE E E ",
"E E E *X*Xa.a.a.*.N L E E E E E E y ; : : : : : : : : : : : : : : : : : : : : : : : : : : ; 5 N N K E E E E E ;.a.a.a.*X*XE E E ",
"E E E *X*Xa.a.a.*.N V E E E E E E p : : : : : : : : : : : : : : : : : : : : : : : : : : : : 6 N F E E E E E E ;.a.a.a.*X*XE E E ",
"E E E *X*Xa.a.a.>.N N F E E E E E p : : : : @ O O O O O O O O O O O O O O O O O O O : : : : 6 Z E E E E E E E ;.a.a.a.*X*XE E E ",
"E E E E E E E E E Z N N U E E E E p : : : : O       @ * * * X     . * * * $         : : : : 6 I E E E E E E E E E E E E E E E E ",
"E E E E E E E E E K N N V T E E E p : : : : O       % = = = +     X = = = &         : : : : 6 E E E E E E E E E E E E E E E E E ",
"E E E E E E E E E I N N N V Y E E r : : : : O       % = = = +     X = = = &         : : : : 7 E E E E E E E E E E E E E E E E E ",
"E E E E E E E E E L N N N N N Z V < : : : : O       % = = = +     X = = = &         : : : : 6 E E E E E E E E E E E E E E E E E ",
"E E E E E E E E E D N N N N N N N < : : : : O       % = = = +     X = = = &         : : : : 6 Y E E E E E E E E E E E E E E E E ",
"E E E E E E E E U N N N N N N N N < : : : : O       % = = = +     X = = = &         : : : : 6 A E E E E E E E E E E E E E E E E ",
"E E E E E E E T V N N N N N N N N < : : : : O       % = = = +     X = = = &         : : : : 6 N K E E E E E E E E E E E E E E E ",
"E E E E E E E A N N N N N N N N N < : : : : O       % = = = +     X = = = &         : : : : 6 N N U E E E E E E E E E E E E E E ",
"E E E E E E D N N N N N N N N N N < : : : : O       % = = = +     X = = = &         : : : : 6 N N N U E E E E E E E E E E E E E ",
"E E E E E F N N N N N N N N N N N < : : : : O       % = = = +     X = = = &         : : : : 6 N N N N Y E E E E E E E E E E E E ",
"E E E E K N N N N N N N N N N N N < : : : : O       % = = = +     X = = = &         : : : : 6 N N N N V T E E E E E E E E E E E ",
"E E E F N N N N N N N V Z V N N N < : : : : O       % = = = +     X = = = &         : : : : 6 N N N N N V U E E E E E E E E E E ",
"E E D N N N N N N N L E E E U H N < : : : : O       % = = = +     X = = = &         : : : : 6 N N N N N N N U E E E E E E E E E ",
"T A N N N N N N N K E E E E E E Y w : : : : O       % = = = +     X = = = &         : : : : 6 N N N N N N N N L E E E E E E E E ",
"V N N N N N N N H E E E E E E E E p : : : : O       % = = = +     X = = = &         : : : : 6 J ~ [ [ R B N N N K E E E E E E T ",
"N N N N N N N Z E E E E E E E E E p : : : : O       % = = = +     X = = = &         : : : : 8  .o.o.o.o.[ B N N N V I E E T H N ",
"N N N N N N V T E E E E E E E E E p : : : : O       % = = = +     X = = = &         : : : : a o.o.o.o.o.o.{ B N N N N N N N N N ",
"N N N N N N I E E E E E E E E E E p : : : : O       # * * * o     . * * * $         : : : : a o.o.o.o.o.o.o.{ B N N N N N N N N ",
"N N N *X*Xa.a.a.2.E E E E E E E E p : : : : O                                       : : : : a o.o.o.o.o.o.o.o.<.a.a.a.*X*XN N N ",
"N N N *X*Xa.a.a.2.E E E E E E E E p : : : : : : : : : : : : : : : : : : : : : : : : : : : : a o.o.o.o.o.o.o.o.7.a.a.a.*X*XN N N ",
"N N N *X*Xa.a.a.2.E E E E E E E E u - : : : : : : : : : : : : : : : : : : : : : : : : : : > s o.o.o.o.o.o.o.o.7.a.a.a.*X*XN N N ",
"N N N *X*Xa.a.a.2.E E E E E E E E n k : : : : : : : : : : : : : : : : : : : : : : : : : : x X.o.o.o.o.o.o.o.o.7.a.a.a.*X*XN N N ",
"N N N *X*Xa.a.a.2.E E E E E E E E / 4 h : : : : : : : : : : : : : : : : : : : : : : : : g q ] o.o.o.o.o.o.o.o.7.a.a.a.*X*XN N N ",
"N N N *X*Xa.a.a.2.E E E E E E E E E ( i t 7 6 6 6 6 6 6 6 6 6 6 6 6 6 6 6 6 6 6 0 a a a d ..o.o.o.o.o.o.o.o.o.7.a.a.a.*X*XN N N ",
"N N N *X*Xa.a.a.2.E E E E E E E E E E E J N N N N N N N N N N N N N N N N N N N G o.o.o.o.o.o.o.o.o.o.o.o.o.o.7.a.a.a.*X*XN N N ",
"N N N *X*Xa.a.a.2.E E E E E E E E E E U N N N N N N N N N N N N N N N N N N N N N [ o.o.o.o.o.o.o.o.o.o.o.o.o.7.a.a.a.*X*XN N N ",
"N N N *X*Xa.a.a.>.E E E E E E E E E U N N N N N N N N N N N N N N N N N N N N N N B | o.o.o.o.o.o.o.o.o.o.o.o.7.a.a.a.*X*XC G B ",
"P N N *X*Xa.a.a.*.A T E E E E E E T V N N N N N N N N N N N N N N N N N N N N N N N B  .o.o.o.o.o.o.o.o.o.o.o.7.a.a.a.*X*Xo.o.o.",
"o.W N *X*Xa.a.a.*.N V U E E E E T V N N N N N N N N F I I I J N N N N N N N N N N N N C  .o.o.o.o.o.o.o.o.o.o.:.a.a.a.*X*Xo.o.o.",
"o.o.! *X*Xa.a.a.*.N N N D K I L N N N N N N N N N T E E E E E E Z N N N N N N N N N N N S  .o.o.o.o.o.o.o.o.! @.a.a.a.*X*Xo.o.o.",
"o.o.o.*X*Xa.a.a.*.N N N N N N N N N N N N N N V T E E E E E E E E D N N N N N N N N N N N C { o.o.o.o.o.o.U N @.a.a.a.*X*Xo.o.o.",
"o.o.o.*X*Xd.a.a.3.J N N N N N N N N N N N N A T E E E E E E E E E E H N N N N N N N N N N N B { o.o.o.o.P N J ;.a.a.s.*X*Xo.o.o.",
"o.o.o._.&Xv.a.a.u.,.@.@.@.@.@.@.@.@.@.@.@.%.;.E E E E E E E E E E E E K N N N N N @.@.@.@.@.@.@.&.-.=.#.@.@.;.y.a.a.c.*X_.o.o.o.",
"o.o.o.I.@XR.a.a.a.a.a.a.a.a.a.a.a.a.a.a.a.a.a.E E E E E E E E E E E E E K N N N N a.a.a.a.a.a.a.a.a.a.a.a.a.a.a.a.a.T.*XI.o.o.o.",
"o.o.o.t..XXXm.a.a.a.a.a.a.a.a.a.a.a.a.a.a.a.a.E E E E E E E E E E E E E E K N N N a.a.a.a.a.a.a.a.a.a.a.a.a.a.a.a.b.}.*Xt.o.o.o.",
"o.o.o.! Z.*X}.J.k.a.a.a.a.a.a.a.a.a.a.a.a.a.a.E E E E E E E E E E E E E E E D N N a.a.a.a.a.a.a.a.a.a.a.a.a.a.j.G.].&XK.o.o.o.o.",
"o.o.! N N H.*X*X*X*X*X*X*X*X*X*X*X*X*X*X*X*X*XE E E E E E E E E E E E E E E E Z N *X*X*X*X*X*X*X*X*X*X*X*X*X*X*X*X*XU.o.o.o.o.o.",
"o.U N N N N 0.~.*X*X*X*X*X*X*X*X*X*X*X*X*X*X*XE E E E E E E E E E E E E E E E T N *X*X*X*X*X*X*X*X*X*X*X*X*X*X*X(.f.V W o.o.o.o.",
"P N N N N N N N N N N N N N N N F E E E E E E E E E E E E E E E E E E E E E E E L N N N N N N N I E E E E E E E Y V N N P o.o.o.",
"N N N N N G ! [ [ R C N N N N N Y E E E E E E E E E E E E E E E E E E E E E E E E V N N N N N U E E E E E E E E E T V N N B G B ",
"N N N N J  .o.o.o.o.| B N N N Z E E E E E E E E E E E E E E E E E E E E E E E E E H N N N N L E E E E E E E E E E E T N N N N N "
};
