/* XPM */
static char *result[] = {
/* columns rows colors chars-per-pixel */
"64 64 215 2 ",
"   c #219853",
".  c #219953",
"X  c #219A54",
"o  c #219B54",
"O  c #219C54",
"+  c #219C55",
"@  c #229C55",
"#  c #229D55",
"$  c #229E56",
"%  c #229F56",
"&  c #229F57",
"*  c #22A057",
"=  c #23A057",
"-  c #23A157",
";  c #23A158",
":  c #23A258",
">  c #23A358",
",  c #23A359",
"<  c #23A55A",
"1  c #24A65A",
"2  c #24A75B",
"3  c #25A95C",
"4  c #25AA5C",
"5  c #25AB5D",
"6  c #25AC5D",
"7  c #26AE5E",
"8  c #26AE5F",
"9  c #26AF5F",
"0  c #27B160",
"q  c #27B261",
"w  c #27B361",
"e  c #28B462",
"r  c #28B562",
"t  c #28B663",
"y  c #3BBF76",
"u  c #53A97F",
"i  c #2FCA71",
"p  c #2ECB71",
"a  c #2FCB72",
"s  c #2ECC71",
"d  c #37C474",
"f  c #35C775",
"g  c #38C475",
"h  c #38C575",
"j  c #38C576",
"k  c #39C577",
"l  c #35C874",
"z  c #3EC079",
"x  c #758C8E",
"c  c #758D8F",
"v  c #768D8F",
"b  c #6D938B",
"n  c #70908B",
"m  c #768E90",
"M  c #778E90",
"N  c #778E91",
"B  c #778F91",
"V  c #788F91",
"C  c #788F92",
"Z  c #789092",
"A  c #799093",
"S  c #799193",
"D  c #7A9194",
"F  c #7A9294",
"G  c #7A9295",
"H  c #7B9295",
"J  c #7B9396",
"K  c #7C9396",
"L  c #7C9497",
"P  c #7C9597",
"I  c #729A92",
"U  c #779994",
"Y  c #759A94",
"T  c #7D9598",
"R  c #7D9698",
"E  c #7E9699",
"W  c #7E9799",
"Q  c #7F989B",
"!  c #56A781",
"~  c #5DA083",
"^  c #5AA483",
"/  c #5CA385",
"(  c #5BA584",
")  c #5DA787",
"_  c #5EA787",
"`  c #56A881",
"'  c #57A982",
"]  c #57AE85",
"[  c #59AB85",
"{  c #5AAD86",
"}  c #5AAD87",
"|  c #5FA889",
" . c #5FA989",
".. c #54B184",
"X. c #57B688",
"o. c #5FB18C",
"O. c #5EB28C",
"+. c #66A48C",
"@. c #6BA08F",
"#. c #6AA28E",
"$. c #61A889",
"%. c #60A989",
"&. c #64AE8F",
"*. c #64AF8F",
"=. c #64AF90",
"-. c #6BAB93",
";. c #68AD91",
":. c #79A29A",
">. c #7BA39C",
",. c #80999C",
"<. c #819A9D",
"1. c #829A9E",
"2. c #829B9E",
"3. c #839C9F",
"4. c #849EA1",
"5. c #859FA2",
"6. c #87A2A5",
"7. c #8AA6A8",
"8. c #8AA7A9",
"9. c #8BA7A9",
"0. c #8BA8AA",
"q. c #8CA9AA",
"w. c #8DA9AB",
"e. c #8DA9AC",
"r. c #8DAAAC",
"t. c #8EAAAD",
"y. c #8EABAD",
"u. c #8FABAE",
"i. c #8FACAD",
"p. c #8FACAF",
"a. c #94A8AA",
"s. c #90ACAF",
"d. c #90ADAF",
"f. c #91ADB0",
"g. c #91ADB1",
"h. c #90AEB0",
"j. c #91AEB1",
"k. c #93AFB3",
"l. c #97ADB0",
"z. c #9EAEB0",
"x. c #93B1B3",
"c. c #94B1B4",
"v. c #95B2B4",
"b. c #96B3B6",
"n. c #9DB1B4",
"m. c #98B5B8",
"M. c #98B6B8",
"N. c #99B7B9",
"B. c #9AB9BA",
"V. c #9CBBBD",
"C. c #9EBCBE",
"Z. c #9FBDBF",
"A. c #A2B2B3",
"S. c #A1B2B5",
"D. c #A8BABC",
"F. c #A2BFC1",
"G. c #A3BFC1",
"H. c #A5C1C3",
"J. c #A6C2C4",
"K. c #A7C2C4",
"L. c #AEC7C9",
"P. c #AFC8CA",
"I. c #B4CBCC",
"U. c #B4CCCD",
"Y. c #B6CCCE",
"T. c #BDC9CB",
"R. c #BDCBCD",
"E. c #B8CECF",
"W. c #BBD0D1",
"Q. c #BCD1D2",
"!. c #C1CBCC",
"~. c #C0CBCD",
"^. c #C1CED0",
"/. c #C4D1D2",
"(. c #C6D0D2",
"). c #C2D5D7",
"_. c #CBD4D4",
"`. c #C5D7D8",
"'. c #CCD7D8",
"]. c #CBDBDC",
"[. c #CEDDDE",
"{. c #D0DADB",
"}. c #D1DADB",
"|. c #D4DBDC",
" X c #D0DEDF",
".X c #D4E1E2",
"XX c #D8E0E1",
"oX c #DAE1E1",
"OX c #DBE3E4",
"+X c #DAE5E6",
"@X c #DEE4E4",
"#X c #DEE4E5",
"$X c #DCE7E7",
"%X c #E1E6E7",
"&X c #E0E7E7",
"*X c #EEF1F2",
"=X c #F1F4F5",
"-X c #F3F5F5",
";X c #F2F6F6",
":X c #F4F6F6",
">X c #F5F7F8",
",X c #F5F8F8",
"<X c #F6F9F9",
"1X c #F8F9F9",
"2X c #F8FAFA",
"3X c #F9FAFB",
"4X c #F9FBFB",
"5X c #FAFBFB",
"6X c #FBFCFC",
"7X c gray99",
"8X c #FCFDFD",
"9X c #FDFDFD",
"0X c #FDFEFE",
"qX c #FEFEFE",
"wX c white",
/* pixels */
"x x x P 4.4.4.4.4.4.4.<.c x x M T T T T T T T T T T T T T T T T T T T T T T T T T A x x x D T T T T T T T T T T T T T J x x x x ",
"x m <.4.4.4.4.4.4.4.4.4.2.c x x L T T T T T T T T T T T T T T T T T T T T T T T T v x x A T T T T T T T T T T T T T T T F x x x ",
"c <.4.4.4.4.4.4.4.4.4.4.4.<.x x A T T T T T T T T T T T T T T T T T T T T T T T H x x v L T T T T T T T T T T T T T T T T N x x ",
"<.4.4.4.4.4.l.^.OX&X=XwXwXwXwXwXwXwXwXwXwXwXwXT T T T T T T T T T T T T T T T T M wXwXwXwXwXwXwXwXwXwXwXwX-X#XoX~.a.T T T F x x ",
"4.4.4.4.4.R.2X6X9X0XqXwXwXwXwXwXwXwXwXwXwXwXwXT T T T T T T T T T T T T T T T D x wXwXwXwXwXwXwXwXwXwXwXwXqX9X8X6X1XT.T T H x <.",
"4.4.4.4./.wX6X$XQ.U.J.V.V.V.V.V.V.V.V.V.V.V.V.T T T T T T T T T T T T T T T H x x V.V.V.V.V.V.V.V.V.V.V.V.H.U.W.+X5XwX(.T V G 4.",
"4.4.4.D.4X5XE.V.V.V.V.V.V.V.V.V.V.V.V.V.V.V.V.T T T T T T T T T T T T T T H x x x V.V.V.V.V.V.V.V.V.V.V.V.V.V.V.V.Y.<XwXS.x ,.4.",
"4.4.4.XX9X[.V.V.V.V.V.V.V.V.V.V.V.V.V.V.V.V.V.T T T T T T T T T T T T T H x x G ,.V.V.V.V.V.V.V.V.V.V.V.V.V.V.V.V.V.].wX|.x W 4.",
"4.4.4.>XqXK.V.V.B.b.x.k.k.k.k.k.u.w.w.w.w.t.s.T T T T T T T T T T T T F x x W 4.4.k.k.g.e.e.p.s.s.s.s.s.s.h.c.N.V.V.J.wX:Xx Z 4.",
"4.4.4.wXwXV.V.V.v.6.5.4.4.4.4.4.m x x x x x V T T T T T T T T T T T D x x Q 4.4.4.4.4.4.2.c v K T T T T T E 1.f.V.V.V.wXwXx x Q ",
"2.4.4.wXwXV.V.V.k.4.4.4.4.4.4.G x x x x x x x N L T T T T T T T T A x x W 4.4.4.4.4.4.4.4.,.x v J T T T T T T t.V.V.V.wXwXx x c ",
"B 4.4.wXwXV.V.V.k.4.4.4.4.4.G x x x x x x x x x v L T T T T T T V x x P 4.4.4.4.4.4.4.4.4.4.W x x J T T T T T r.V.V.V.wXwXx x x ",
"x G 4.wXwXV.V.V.k.4.4.4.3.S x x x x x x x x x x x x S L T T D x x x m 4.4.4.4.4.4.4.4.4.4.4.4.G x x D T T T J 9.V.V.V.wXwXH C x ",
"x x J wXwXV.V.V.k.4.4.3.m x x x x x x x x x x x x x x x x x x x x x B 4.4.4.4.4.4.4.4.4.4.4.4.P x x x v M v x 7.V.V.V.wXwXT T L ",
"K v x wXwXV.V.V.k.4.2.m x x v H T T H x x x x x x x x x x x x x x x x ,.4.4.4.4.4.4.4.4.4.4.4.m x x x x x x x q.V.V.V.wXwXT T T ",
"T L v wXwXV.V.V.k.W c x x C T T T T T D x x x x x x x x x x x x x x x S 4.4.4.4.4.4.4.4.4.4.J x x x x x x x D t.V.V.V.wXwXT T T ",
"T T L wXwXV.V.V.w.x x x S T T T T T T T A x x x x x x x x x x x x x x x G 4.4.4.4.4.4.4.4.P x x x x x x x F T t.V.V.V.wXwXT T T ",
"T T T wXwXV.V.V.w.x x J T T T T T T U @.+./ ^ ^ ^ ^ ^ ^ ^ ^ ^ ^ ^ ^ ^ ^ ^ ) *.*.*.*.=.-.#.n x x x x x x D T T t.V.V.V.wXwXT T T ",
"T T T wXwXV.V.V.w.x C T T T T T T Y ] z h a s s s s s s s s s s s s s s s s s s s s a h y u b x x x x D T T T t.V.V.V.wXwXT T T ",
"T T T wXwXV.V.V.w.x H T T T T T T +.j s s s s s s s s s s s s s s s s s s s s s s s s s s d ~ x x x D T T T T t.V.V.V.wXwXT T T ",
"T T T wXwXV.V.V.w.x F T T T T T T | p s s s s s s s s s s s s s s s s s s s s s s s s s s p ! x x D T T T T T t.V.V.V.wXwXT T T ",
"T T T wXwXV.V.V.w.x v T T T T T T  .s s s s s s s s s s s s s s s s s s s s s s s s s s s s ` x C T T T T T T t.V.V.V.wXwXT T T ",
"T T T wXwXV.V.V.u.x x C T T T T T  .s s s s t r r r 9 & o o o o o o o o & 7 r r r r s s s s ` M T T T T T T T t.V.V.V.wXwXT T T ",
"T T T T T T T T T M x x J T T T T  .s s s s r e e e e 5 +             o 5 e e e e e s s s s ` H T T T T T T T T T T T T T T T T ",
"T T T T T T T T T D x x v L T T T  .s s s s r e e e e e 5 +         + 4 e e e e e e s s s s ` T T T T T T T T T T T T T T T T T ",
"T T T T T T T T T H x x x v K T T _ s s s s r e e e e e e 4 @     + 3 e e e e e e e s s s s ' T T T T T T T T T T T T T T T T T ",
"T T T T T T T T T F x x x x x M v ^ s s s s 0 e e e e e e w >     : w e e e e e e 9 s s s s ` T T T T T T T T T T T T T T T T T ",
"T T T T T T T T T V x x x x x x x ^ s s s s , 8 e e e e w 5 @ + # O 4 w e e e e 8 = s s s s ` K T T T T T T T T T T T T T T T T ",
"T T T T T T T T J x x x x x x x x ^ s s s s o % 8 e e w 5 # + 5 6 # # 4 w e e 8 *   s s s s ` N T T T T T T T T T T T T T T T T ",
"T T T T T T T L v x x x x x x x x ^ s s s s o   % 7 w 5 # # 5 w e 6 # # 5 w 8 *     s s s s ` x D T T T T T T T T T T T T T T T ",
"T T T T T T T N x x x x x x x x x ^ s s s s o     $ 1 @ + 5 w e e w 6 # @ < &       s s s s ` x x J T T T T T T T T T T T T T T ",
"T T T T T T V x x x x x x x x x x ^ s s s s o         + 5 w e e e e w 6 +           s s s s ` x x x J T T T T T T T T T T T T T ",
"T T T T T C x x x x x x x x x x x ^ s s s s o         = 9 e e e e e e 9 =           s s s s ` x x x x K T T T T T T T T T T T T ",
"T T T T D x x x x x x x x x x x x ^ s s s s o     o % . * 8 w e e w 9 - . % +       s s s s ` x x x x v L T T T T T T T T T T T ",
"T T T C x x x x x x x v M v x x x ^ s s s s o   + 3 q 1 X = 8 w e 9 ; X 1 q 4 @     s s s s ` x x x x x v J T T T T T T T T T T ",
"T T V x x x x x x x F T T T J A x ^ s s s s o o 4 e e q 2 o = 9 9 - X 1 q e e 4 +   s s s s ` x x x x x x x J T T T T T T T T T ",
"L N x x x x x x x D T T T T T T K ( s s s s & 5 e e e e q 2 X * = . 1 q e e e e 5 # s s s s ` x x x x x x x x F T T T T T T T T ",
"v x x x x x x x A T T T T T T T T  .s s s s 7 e e e e e e q >     : q e e e e e e 6 s s s s ` S Q ,.,.P c x x x D T T T T T T L ",
"x x x x x x x M T T T T T T T T T  .s s s s r e e e e e e 8 %     $ 7 e e e e e e e s s s s [ 3.4.4.4.4.,.c x x x v H T T L A x ",
"x x x x x x v L T T T T T T T T T  .s s s s r e e e e e 8 *         % 7 e e e e e e s s s s O.4.4.4.4.4.4.<.c x x x x x x x x x ",
"x x x x x x H T T T T T T T T T T  .s s s s r e e e e 8 *             % 8 e e e e e s s s s O.4.4.4.4.4.4.4.<.c x x x x x x x x ",
"x x x wXwXV.V.V.s.T T T T T T T T  .s s s s r e e e 9 =                 = 9 e e e e s s s s O.4.4.4.4.4.4.4.4.p.V.V.V.wXwXx x x ",
"x x x wXwXV.V.V.s.T T T T T T T T  .s s s s s s s s s s s s s s s s s s s s s s s s s s s s O.4.4.4.4.4.4.4.4.j.V.V.V.wXwXx x x ",
"x x x wXwXV.V.V.s.T T T T T T T T %.i s s s s s s s s s s s s s s s s s s s s s s s s s s a o.4.4.4.4.4.4.4.4.j.V.V.V.wXwXx x x ",
"x x x wXwXV.V.V.s.T T T T T T T T +.g s s s s s s s s s s s s s s s s s s s s s s s s s s k ;.4.4.4.4.4.4.4.4.j.V.V.V.wXwXx x x ",
"x x x wXwXV.V.V.s.T T T T T T T T Y ..f s s s s s s s s s s s s s s s s s s s s s s s s l X.>.4.4.4.4.4.4.4.4.j.V.V.V.wXwXx x x ",
"x x x wXwXV.V.V.s.T T T T T T T T T I $.} ' ` ` ` ` ` ` ` ` ` ` ` ` ` ` ` ` ` ` { O.O.O.&.:.4.4.4.4.4.4.4.4.4.j.V.V.V.wXwXx x x ",
"x x x wXwXV.V.V.s.T T T T T T T T T T T S x x x x x x x x x x x x x x x x x x x Z 4.4.4.4.4.4.4.4.4.4.4.4.4.4.j.V.V.V.wXwXx x x ",
"x x x wXwXV.V.V.s.T T T T T T T T T T J x x x x x x x x x x x x x x x x x x x x x ,.4.4.4.4.4.4.4.4.4.4.4.4.4.j.V.V.V.wXwXx x x ",
"x x x wXwXV.V.V.u.T T T T T T T T T J x x x x x x x x x x x x x x x x x x x x x x c 2.4.4.4.4.4.4.4.4.4.4.4.4.j.V.V.V.wXwXm Z c ",
"G x x wXwXV.V.V.w.N L T T T T T T L v x x x x x x x x x x x x x x x x x x x x x x x c 3.4.4.4.4.4.4.4.4.4.4.4.j.V.V.V.wXwX4.4.4.",
"4.R x wXwXV.V.V.w.x v J T T T T L v x x x x x x x x C H H H S x x x x x x x x x x x x m 3.4.4.4.4.4.4.4.4.4.4.y.V.V.V.wXwX4.4.4.",
"4.4.W wXwXV.V.V.w.x x x V D H F x x x x x x x x x L T T T T T T M x x x x x x x x x x x B 3.4.4.4.4.4.4.4.4.W 7.V.V.V.wXwX4.4.4.",
"4.4.4.wXwXV.V.V.w.x x x x x x x x x x x x x x v L T T T T T T T T V x x x x x x x x x x x m <.4.4.4.4.4.4.J x 7.V.V.V.wXwX4.4.4.",
"4.4.4.wXwXZ.V.V.d.S x x x x x x x x x x x x N L T T T T T T T T T T A x x x x x x x x x x x c <.4.4.4.4.G x S t.V.V.C.wXwX4.4.4.",
"4.4.4.*XqXP.V.V.M.i.7.7.7.7.7.7.7.7.7.7.7.0.t.T T T T T T T T T T T T D x x x x x 7.7.7.7.7.7.7.q.r.e.8.7.7.t.m.V.V.L.wX*X4.4.4.",
"4.4.4.{.7X.XV.V.V.V.V.V.V.V.V.V.V.V.V.V.V.V.V.T T T T T T T T T T T T T D x x x x V.V.V.V.V.V.V.V.V.V.V.V.V.V.V.V.V. XwX{.4.4.4.",
"4.4.4.n.2X3XY.V.V.V.V.V.V.V.V.V.V.V.V.V.V.V.V.T T T T T T T T T T T T T T D x x x V.V.V.V.V.V.V.V.V.V.V.V.V.V.V.V.I.,XwXn.4.4.4.",
"4.4.4.W !.wX,X`.G.V.V.V.V.V.V.V.V.V.V.V.V.V.V.T T T T T T T T T T T T T T T V x x V.V.V.V.V.V.V.V.V.V.V.V.V.V.F.).;XqX'.4.4.4.4.",
"4.4.W x x _.wXwXwXwXwXwXwXwXwXwXwXwXwXwXwXwXwXT T T T T T T T T T T T T T T T M x wXwXwXwXwXwXwXwXwXwXwXwXwXwXwXwXwX}.4.4.4.4.4.",
"4.J x x x x z.@XwXwXwXwXwXwXwXwXwXwXwXwXwXwXwXT T T T T T T T T T T T T T T T L x wXwXwXwXwXwXwXwXwXwXwXwXwXwXwX%XA.v R 4.4.4.4.",
"G x x x x x x x x x x x x x x x C T T T T T T T T T T T T T T T T T T T T T T T F x x x x x x x H T T T T T T T K v x x G 4.4.4.",
"x x x x x Z W ,.,.P m x x x x x K T T T T T T T T T T T T T T T T T T T T T T T T v x x x x x J T T T T T T T T T L v x x c Z c ",
"x x x x S 3.4.4.4.4.2.c x x x M T T T T T T T T T T T T T T T T T T T T T T T T T A x x x x F T T T T T T T T T T T L x x x x x "
};
