/* XPM */
static char *result[] = {
/* columns rows colors chars-per-pixel */
"64 64 175 2 ",
"   c #333333",
".  c #3B3633",
"X  c #3F3834",
"o  c #473C35",
"O  c #4D3E36",
"+  c #643833",
"@  c #4F4036",
"#  c #544236",
"$  c #5D4537",
"%  c #5E5B3F",
"&  c #654B39",
"*  c #694C39",
"=  c #64533C",
"-  c #6B513E",
";  c #61593E",
":  c #71543F",
">  c #5C5E40",
",  c #6B5645",
"<  c #615D40",
"1  c #6C5848",
"2  c #6C5B4C",
"3  c #735641",
"4  c #755943",
"5  c #795D46",
"6  c #7B5E48",
"7  c #6D5E51",
"8  c #5A6443",
"9  c #566A45",
"0  c #497B4B",
"q  c #517148",
"w  c #51784B",
"e  c #6E6154",
"r  c #6E655B",
"t  c #6E685E",
"y  c #71665A",
"u  c #70685D",
"i  c #6E6B62",
"p  c #726D65",
"a  c #6F7069",
"s  c #73736C",
"d  c #717772",
"f  c #737975",
"g  c #787C76",
"h  c #747D7A",
"j  c #AB3F34",
"k  c #9E4636",
"l  c #A34636",
"z  c #B54335",
"x  c #CD4335",
"c  c #D24436",
"v  c #D94737",
"b  c #DB4738",
"n  c #DF4939",
"m  c #DA543E",
"M  c #E64C3C",
"N  c #E2503E",
"B  c #90704D",
"V  c #866A51",
"C  c #896C53",
"Z  c #8E7157",
"A  c #8F7358",
"S  c #94775B",
"D  c #97795D",
"F  c #A77A4F",
"G  c #D05D43",
"H  c #E95845",
"J  c #CA6145",
"K  c #ED765D",
"L  c #3E8D53",
"P  c #399456",
"I  c #369A58",
"U  c #2FA55D",
"Y  c #2BAA5F",
"T  c #2AAD60",
"R  c #3CAC63",
"E  c #28B162",
"W  c #2AB966",
"Q  c #34B56B",
"!  c #34BC6B",
"~  c #3EB872",
"^  c #44844F",
"/  c #439E5D",
"(  c #638F5C",
")  c #6F9662",
"_  c #74807E",
"`  c #79807A",
"'  c #5AAD64",
"]  c #46BB6A",
"[  c #4BBD75",
"{  c #4ABD7B",
"}  c #58BC73",
"|  c #67A863",
" . c #76AB6A",
".. c #2CC76E",
"X. c #2DC96F",
"o. c #33C36D",
"O. c #3CC36D",
"+. c #2ECC71",
"@. c #31CB72",
"#. c #3FCD76",
"$. c #43CE77",
"%. c #54CD7B",
"&. c #60CF7F",
"*. c #998252",
"=. c #9E8164",
"-. c #A28467",
";. c #A48768",
":. c #A6896A",
">. c #A98D6D",
",. c #AF9171",
"<. c #B39675",
"1. c #B49977",
"2. c #B89B79",
"3. c #9AA074",
"4. c #A0A477",
"5. c #BCA07C",
"6. c #D78B67",
"7. c #E48E6D",
"8. c #F08569",
"9. c #E69D7D",
"0. c #F39878",
"q. c #C1A37F",
"w. c #748483",
"e. c #798685",
"r. c #778886",
"t. c #758C8E",
"y. c #7B8C8C",
"u. c #778E90",
"i. c #788F91",
"p. c #7B9295",
"a. c #7D9598",
"s. c #7F989B",
"d. c #57C284",
"f. c #62D181",
"g. c #7FD38A",
"h. c #6DCA94",
"j. c #6DD297",
"k. c #809494",
"l. c #819A9D",
"z. c #849EA1",
"x. c #C3A581",
"c. c #C6AA84",
"v. c #C9AE87",
"b. c #CEB28C",
"n. c #C1BB8B",
"m. c #D1B38D",
"M. c #D3B691",
"N. c #D6BC92",
"B. c #DBBE95",
"V. c #F7B18B",
"C. c #F9BA93",
"Z. c #9AC182",
"A. c #9CD693",
"S. c #A3D795",
"D. c #98D9B3",
"F. c #CAC190",
"G. c #DDC298",
"H. c #E2C69B",
"J. c #E8C99E",
"K. c #ECCDA2",
"L. c #EDD0A4",
"P. c #F1D2A5",
"I. c #FCD2A6",
"U. c #F4D5A8",
"Y. c #F5DBAB",
"T. c #FBDCAE",
"R. c #FEDFB0",
"E. c #FFE0B1",
"W. c #AAE0C1",
"Q. c #B3E3C7",
"!. c #C0E8D1",
"~. c #CEEDDB",
"^. c #DEF3E7",
"/. c #F5FBF7",
"(. c #FFFFFF",
/* pixels */
"t.t.t.a.z.z.z.z.z.z.z.l.t.t.t.u.a.a.a.a.a.a.a.a.a.a.a.a.a.a.a.a.a.a.a.a.a.a.a.a.a.p.t.t.t.p.a.a.a.a.a.a.a.a.a.a.a.a.a.p.t.t.t.t.",
"t.u.l.z.z.z.z.z.z.z.z.z.l.t.t.t.p.a.a.a.a.a.a.a.a.a.a.a.a.a.a.a.a.a.a.a.a.a.a.a.a.t.t.t.i.a.a.a.a.a.a.a.a.a.a.a.a.a.a.a.p.t.t.t.",
"t.l.z.z.z.z.z.z.z.z.z.z.z.s.t.t.p.a.a.a.a.a.a.a.a.a.a.a.a.a.a.a.a.a.a.a.a.a.a.a.p.t.t.t.p.a.a.a.a.a.a.a.a.a.a.a.a.a.a.a.a.u.t.t.",
"l.z.z.z.z.z.z.z.z.z.z.z.z.z.a.t.t.p.a.a.a.a.a.a.a.a.a.a.a.a.a.a.a.a.a.a.a.a.a.a.u.t.t.u.a.a.a.a.a.a.a.a.a.a.a.a.a.a.a.a.a.p.t.t.",
"z.z.z.z.z.z.z.z.z.z.z.z.z.z.z.p.t.t.a.a.a.a.a.a.a.a.a.a.a.a.a.a.a.a.a.a.a.a.a.p.t.t.t.p.a.a.a.a.a.a.a.a.a.a.a.a.a.a.a.a.a.p.t.l.",
"z.z.z.z.z.z.z.z.z.z.z.z.z.z.z.l.t.t.p.a.a.a.a.a.a.a.a.a.a.a.a.a.a.a.a.a.a.a.p.t.t.t.t.t.a.a.a.a.a.a.a.a.a.a.a.a.a.a.a.a.a.u.p.z.",
"z.z.z.z.z.z.z.z.z.z.z.z.z.z.z.z.p.t.t.p.a.a.p.a.a.a.a.a.a.a.a.p.a.a.a.a.a.p.t.t.t.t.t.u.p.a.a.a.a.a.a.a.a.a.a.a.a.a.a.a.p.t.s.z.",
"z.z.z.z.z.z.z.z.z.z.z.z.z.z.z.z.a.t.t.t.t.i.t.t.y.e.e.e.e.e.e.y.e.e.e.y.w.h _ w.i.u.r.r.t.p.a.a.a.a.a.a.a.a.a.a.a.a.a.p.u.t.a.z.",
"z.z.z.z.z.z.z.z.z.z.z.z.z.z.z.z.p.r._ f a i e e 7 1 1 1 1 1 1 1 1 1 1 1 , , 1 7 r r p s f _ t.p.a.a.a.a.a.a.a.a.a.a.a.t.t.t.i.z.",
"z.z.z.z.z.z.z.z.z.z.z.z.z.z.z.l.h t 2 , , > 8 8 8 q q q q q q q q q q q q q q 9 8 8 ; ; 2 2 t _ p.a.a.a.a.a.a.a.a.a.u.t.t.t.t.s.",
"l.z.z.z.z.z.z.z.z.z.z.z.z.z.z._ 2 = % 9 0 L I I I U U U U U U U U Y U U U U U I I I P ^ q % * 2 h p.a.a.a.a.a.a.a.u.t.t.t.t.t.u.",
"p.z.z.z.z.z.z.z.z.z.z.z.z.l.t.1 $ 0 I U Y E E E E E E E E T E E T E E T E E E E E E E Y U I 0 % 1 r.a.a.a.a.a.p.t.t.t.t.t.t.t.t.",
"t.p.l.z.z.z.z.z.z.z.z.z.l.p.t = 0 Y Y E E E E E E E E E E E E E E E E E E E E E E E E E E Y Y 0 * i i.a.a.a.p.u.t.u.i.p.p.p.u.t.",
"t.t.p.z.z.z.z.z.z.z.z.z.p.t.2 = U E E E E E E E E E E E E E E E E E E E T E E E E E E E E E E U > 2 t.u.u.u.t.t.i.a.a.a.a.a.a.a.",
"a.u.t.s.z.z.z.z.z.z.l.u.t.t.= % E E E E E E E E E E E E E E E E E E E E E E E E E E E E E E E E > * t.t.t.t.t.p.a.a.a.a.a.a.a.a.",
"a.p.t.t.s.l.z.z.z.a.t.t.t.u.* ; E E E E E E T E E E E ~ h.Q.~.~.~.~.Q.h.Q E E E E E E E E E E E > * t.t.t.u.i.a.a.a.a.a.a.a.a.a.",
"a.a.a.u.t.t.p.p.t.t.t.t.p.p.* ; T E E E T E E E E E d.!./.(.(.(.(.(.(./.W.%.E E E E E E E E E E > * t.t.t.p.p.a.a.a.a.a.a.a.a.a.",
"a.a.a.p.t.t.t.t.t.t.t.p.a.a.* ; E E E E E E E E E { Q./.(.(.(.(.(.(.(.(./.Q.{ E E E E E E E E E > & t.t.p.a.a.a.a.a.a.a.a.a.a.a.",
"a.a.a.a.p.t.t.t.t.t.p.a.a.a.* ; E E E E E E E E Q D./.(.(.(.(.(.(.(.(.(.(./.D.Q E E E E E E E E > * t.i.a.a.a.a.a.a.a.a.a.a.a.a.",
"a.a.a.a.a.p.t.t.t.t.p.a.a.a.* ; E E E E E E E E ~ ^.(.(.(.(.(.(.(.(.(.(.(.(.^.{ Y E E E E E E E > * p.a.a.a.a.a.a.a.a.a.a.a.a.a.",
"a.a.a.a.a.a.a.t.t.t.p.a.a.a.* ; E E E W E E W W ! j.j.j.j.j.j.j.h.j.j.j.j.j.j.o.W W W E W E E E > * a.a.a.a.a.a.a.a.a.a.a.a.a.a.",
"a.a.a.a.a.a.a.p.t.t.t.a.a.a.* ; ....X.X.X.X.X.X.X.X.X.+.X.X.X.X.+.....+.X.X.X.X.X.X.X.X.X.X.X...8 * a.a.a.a.a.a.a.a.a.a.a.a.a.a.",
"a.a.a.a.a.a.a.a.p.t.t.i.a.a.* ; +.+.+.+.+.+.+.+.+.+.+.+.+.+.+.+.+.+.+.+.+.+.+.+.+.+.X.+.+.+.X.@.8 * a.a.a.a.a.a.a.a.a.a.a.a.a.a.",
"a.a.a.a.a.a.a.a.a.t.t.t.a.a.* < +.+.+.+.+.+.+.+.+.+.+.+.+.+.+.+.+.+.+.+.+.+.+.+.+.+.+.+.+.+.+.X.< * a.a.a.a.a.a.a.a.a.a.a.a.a.a.",
"a.a.a.a.a.a.a.a.a.p.t.t.t.p.= ; ! X.+.+.+.+.+.+.+.+.+.+.+.+.+.+.+.+.+.+.+.+.+.+.+.+.+.+.+.+.@.Q < * a.a.a.a.a.a.a.a.a.a.a.a.a.a.",
"a.a.a.a.a.a.a.a.a.p.t.t.t.t.2 = 0 R R [ &.f.f.f.f.f.f.f.f.f.f.f.f.f.f.f.f.f.f.f.f.f.f.f.%.] R w * 7 p.a.a.a.a.a.a.a.a.a.a.a.a.a.",
"a.a.a.a.a.a.a.a.p.p.t.t.t._ e * * * : q.T.E.E.E.E.E.E.E.E.E.E.E.R.E.E.E.E.E.E.E.E.E.E.E.H.S * * * 7 f k.a.a.a.a.a.a.a.a.a.a.a.a.",
"a.a.a.a.a.a.a.a.a.u.t.t.f 2 5 Z C : ;.K.E.E.T.R.R.T.E.E.E.E.E.E.R.E.E.E.E.E.R.R.R.R.E.E.T.q.5 V A 6 , _ a.a.a.a.a.a.a.a.a.a.a.a.",
"a.a.a.a.a.a.a.a.p.t.t.w.7 , <.c.1.C N.R.R.E.T.T.T.Y.E.E.E.E.E.E.E.E.E.E.E.E.R.R.R.T.E.E.E.L.;.<.v.1.3 7 r.a.a.a.a.a.a.a.a.a.a.a.",
"a.a.a.a.a.a.a.p.u.t.u.i - ;.N.N.m.H.T.E.E.E.=.D S ,.E.E.E.E.E.E.E.E.E.E.E.E.1.D D D E.E.E.E.H.N.B.M.>.* p a.a.a.a.a.a.a.a.a.a.a.",
"a.a.a.a.a.a.a.u.t.t.t.e & v.N.N.H.T.R.E.E.E.: * * Z R.E.E.E.E.E.E.E.R.E.E.R.D * * * E.E.E.E.R.G.G.N.M.* 7 a.a.a.a.a.a.a.a.a.a.a.",
"a.a.a.a.a.a.p.t.t.t.t.e * m.G.N.H.R.E.E.E.E.L.L.U.U.E.E.E.E.L.H.H.K.R.E.E.R.Y.P.P.U.E.E.E.E.R.G.N.N.N.* 7 a.a.a.a.a.a.a.a.a.a.a.",
"a.a.a.a.a.i.t.t.t.t.t.r * 1.N.G.B.R.E.E.E.R.R.E.Y.R.R.R.E.Y.G.G.N.B.L.E.E.E.E.E.R.T.E.E.E.E.T.G.N.G.5.& r a.a.a.a.a.a.a.a.a.a.a.",
"a.a.a.a.p.t.t.t.t.t.t.d , 6 q.M.G.R.E.E.E.R.R.E.R.R.R.K.q.q.m.F.N.N.b.5.H.R.E.E.E.E.E.E.E.E.Y.H.N.q.6 - g a.a.a.a.a.a.a.a.a.a.a.",
"a.a.a.t.t.t.t.t.t.t.t.t.i - 4 >.c.K.E.E.E.E.E.E.R.R.G.A * B 1.5.5.2.S * A N.Y.E.E.E.E.E.E.E.L.x.>.4 - t t.a.a.a.a.a.a.a.a.a.p.a.",
"a.a.i.t.t.t.t.t.t.t.p.a.a.d 2 - 4 c.E.E.E.E.E.E.R.K.*.* * * * * * * * * * C H.E.E.E.E.E.E.E.M.V = 7 a r.t.t.p.a.a.a.a.a.a.a.a.a.",
"a.p.t.t.t.t.t.t.t.p.a.a.a.p._ p 3 1.R.R.E.E.E.E.R.B.3 * * * * * * * * * * - m.R.E.E.E.E.R.R.x.4 e _ t.t.t.t.t.p.a.a.a.a.a.a.a.a.",
"t.t.t.t.t.t.t.t.i.a.a.a.a.a.i.p * -.Y.R.E.R.E.E.E.K.>.C : & * * * * * - C :.J.R.E.E.E.E.R.Y.>.- r p.l.a.t.t.t.t.p.a.a.a.a.a.a.a.",
"t.t.t.t.t.t.t.t.p.a.a.a.a.y.r - 9 ( n.R.R.R.R.R.R.R.P.H.b.v.b.b.b.b.m.M.H.P.T.R.E.E.E.R.T.F.) 9 , y k.z.l.t.t.t.t.t.p.a.a.p.p.t.",
"t.t.t.t.t.t.t.a.a.a.a.a.a.e * q ! !  .6.8.8.8.8.7.Z.g.g.A.&.A.g.g.A.g.g.g.g.Z.7.8.8.8.8.6. .O.! w * 7 z.l.l.t.t.t.t.t.t.t.t.t.t.",
"t.t.t.t.t.t.p.a.a.a.a.a.` = = ! +.+.+.| J N N M N F @.@.+.@.@.@...+.+.+.@.@.*.N M M M G | X.+.+.o.; * ` z.z.l.t.t.t.t.t.t.t.t.t.",
"t.t.t.t.t.t.a.a.a.a.a.a.y * / +.+.$.f.d.| J M M M M F O.+.+.@.@...X.+.+.O.*.N M M M G | %.f.$.+.X./ * y z.z.z.l.t.t.t.t.t.t.t.t.",
"t.t.t.t.t.a.a.a.a.a.a.a.2 * o.#.A.R.R.E.E.P.K M M M M m D ' ] ] ] ] ' *.m M M M M K I.R.E.E.R.S.$.X.* , z.z.z.z.l.t.t.t.t.t.t.t.",
"t.t.t.t.p.a.a.a.a.a.a.a.2 * +.A.R.R.E.E.E.E.I.M M M M M M M M M M M M N M M M M M I.E.R.E.E.E.E.S.@.- 2 z.z.z.z.z.s.t.t.t.t.t.t.",
"t.t.t.t.t.a.a.a.a.a.a.a.u & [ Y.E.E.E.E.E.E.E.N M M M M M M n M n n M M M M M M M R.R.R.E.E.E.E.Y.} * y z.z.z.z.z.z.p.t.t.t.t.t.",
"t.t.t.t.p.p.a.a.a.a.a.a.s * 3.R.E.E.E.E.E.E.I.M M M M M v c x x x c v b n M M M M I.R.R.E.E.E.E.R.4.* s z.z.z.z.z.z.l.t.t.t.t.t.",
"t.t.t.t.t.p.a.a.a.a.a.a.f * ;.R.E.E.E.E.E.R.V.M M M M v x x x x x x x x b M M M M V.R.R.E.E.E.E.R.>.* g z.z.z.z.z.z.z.t.t.t.t.t.",
"t.t.t.t.t.t.p.a.a.a.a.a.` - Z E.E.E.E.E.E.R.K M M M n x x x x x x x x x x b M M M K T.R.E.E.E.E.E.S - ` z.z.z.z.z.z.s.t.t.t.t.t.",
"t.t.t.t.t.t.t.p.a.a.a.a.y.- - P.R.R.R.R.E.V.H M M n c x x x x x x x x x x x n M M N 0.E.E.E.R.R.U.: * k.z.z.z.z.z.z.i.t.t.t.t.t.",
"t.t.t.t.t.t.t.t.p.a.a.a.p.t & ;.T.R.R.R.C.H M M n b x x z l k k k l l z x x v M M M H C.E.E.R.T.:.* u z.z.z.z.z.z.a.t.t.t.i.i.t.",
"p.t.t.t.t.t.t.t.t.t.a.a.a.y.- - D M.m.9.H H M M M c j + + * * * * * * $ + l c M M M M H 9.M.b.-.: - k.z.z.z.z.z.a.t.t.t.a.z.z.z.",
"z.a.t.t.t.t.t.t.t.t.t.a.a.a.r.1 * O                     o & i h h i & O           .         # & 1 k.z.z.z.z.z.a.r.t.t.a.z.z.z.z.",
"z.z.a.t.t.t.t.t.t.t.t.t.p.p.p.w., O                     O & f a.u.d & O                     # - y.z.z.z.z.z.a.t.t.u.a.z.z.z.z.z.",
"z.z.z.s.t.t.t.t.t.t.t.t.t.t.t.w.2 $ O o .           . o $ , e.a.p.h , $ o . .         . X @ & r k.z.z.z.z.p.t.t.t.a.z.z.z.z.z.z.",
"z.z.z.z.a.t.t.t.t.t.t.t.t.t.t.t.d 2 & & O # O O O O + & , f i.s.k.p.s 1 $ $ # @ O @ O # $ * < _ l.z.z.z.p.t.t.t.a.z.z.z.z.z.z.z.",
"z.z.z.z.s.t.t.t.t.t.t.t.t.t.t.t.r.f i 7 3 * * * * * 2 p g i.k.k.a.p.i.h i 2 , * * * * * 2 t _ t.p.a.a.t.t.t.t.t.s.z.z.z.z.z.z.z.",
"z.z.z.z.a.t.t.t.t.t.t.t.t.t.t.t.t.t.r.w.h h _ h h _ r.i.i.a.a.a.a.a.a.a.i._ h d d d d _ _ w.t.t.t.t.t.t.t.t.t.t.s.z.z.z.z.z.z.z.",
"z.z.z.z.a.t.t.t.t.t.t.t.t.t.t.t.t.t.t.u.a.i.a.a.l.a.k.a.a.a.a.a.a.a.a.a.a.i.u.u.t.t.t.t.t.t.t.t.t.t.t.t.t.t.t.t.a.z.z.z.z.z.z.z.",
"z.z.s.s.t.t.t.t.t.t.t.t.t.t.t.t.t.t.u.a.a.a.a.a.a.a.a.a.a.a.a.a.a.a.a.a.a.a.u.t.t.t.t.t.t.t.t.t.t.t.t.t.t.t.t.t.t.s.z.z.z.z.z.z.",
"z.z.a.t.t.t.t.t.t.t.t.t.t.t.t.t.t.u.a.a.a.a.a.a.a.a.a.a.a.a.a.a.a.a.a.a.a.a.a.u.t.t.t.t.t.t.t.t.t.t.p.a.a.a.p.u.t.t.s.z.z.z.z.z.",
"z.a.t.t.t.t.t.t.t.t.t.t.t.r.t.t.u.i.a.a.a.a.a.a.a.a.a.a.a.a.a.a.a.a.a.a.a.a.a.p.t.t.t.t.t.t.t.t.t.p.a.a.a.a.a.p.t.t.t.s.z.z.z.z.",
"a.t.t.t.t.t.t.t.t.t.t.t.t.t.t.t.i.a.a.a.a.a.a.a.a.a.a.a.a.a.a.a.a.a.a.a.a.a.a.a.p.t.t.t.t.t.t.t.p.a.a.a.a.a.a.a.p.t.t.t.p.z.z.z.",
"t.t.t.t.u.p.s.s.s.a.u.t.t.t.t.t.i.k.a.a.a.a.a.a.a.a.a.a.a.a.a.a.a.a.a.a.a.a.a.a.a.t.t.t.t.t.t.p.a.a.a.a.a.a.a.a.a.p.t.t.t.t.u.t.",
"t.t.t.t.p.z.z.z.z.s.s.u.t.t.t.u.a.a.a.a.a.a.a.a.a.a.a.a.a.a.a.a.a.a.a.a.a.a.a.a.a.p.t.t.t.t.p.a.a.a.a.p.a.a.a.a.a.a.a.t.t.t.t.t."
};
