/* XPM */
static char *result[] = {
/* columns rows colors chars-per-pixel */
"64 64 179 2 ",
"   c #333333",
".  c #3B3633",
"X  c #3F3834",
"o  c #473C35",
"O  c #4D3E36",
"+  c #643833",
"@  c #4F4036",
"#  c #544236",
"$  c #5D4537",
"%  c #5E5B3F",
"&  c #654B39",
"*  c #694C39",
"=  c #64533C",
"-  c #6C503E",
";  c #61593E",
":  c #71543F",
">  c #5C5E40",
",  c #6B5645",
"<  c #615D40",
"1  c #6C5848",
"2  c #6C5B4C",
"3  c #735641",
"4  c #755943",
"5  c #795D46",
"6  c #7B5E48",
"7  c #6D5E51",
"8  c #5A6443",
"9  c #566A45",
"0  c #497B4B",
"q  c #517148",
"w  c #51784B",
"e  c #7D6049",
"r  c #6E6154",
"t  c #6E655B",
"y  c #6E685E",
"u  c #706053",
"i  c #71665A",
"p  c #70685D",
"a  c #6E6B62",
"s  c #726D65",
"d  c #6F7069",
"f  c #73736C",
"g  c #717772",
"h  c #737975",
"j  c #787C76",
"k  c #747D7A",
"l  c #AB3F34",
"z  c #9E4636",
"x  c #A34636",
"c  c #B54335",
"v  c #CD4335",
"b  c #D24436",
"n  c #D94737",
"m  c #DB4738",
"M  c #DF4939",
"N  c #DA543E",
"B  c #E64C3C",
"V  c #E2503E",
"C  c #81644C",
"Z  c #9F7D4F",
"A  c #866951",
"S  c #896C53",
"D  c #8E7157",
"F  c #8F7358",
"G  c #95785C",
"H  c #A77A4F",
"J  c #D05D43",
"K  c #E95845",
"L  c #CA6145",
"P  c #ED765D",
"I  c #3E8D53",
"U  c #399456",
"Y  c #369A58",
"T  c #2FA55D",
"R  c #2BAA5F",
"E  c #30A35C",
"W  c #2AAD60",
"Q  c #3CAC63",
"!  c #28B162",
"~  c #2AB966",
"^  c #34B56B",
"/  c #34BC6B",
"(  c #3EB872",
")  c #44844F",
"_  c #439E5D",
"`  c #638F5C",
"'  c #6EA15F",
"]  c #6F9662",
"[  c #74807E",
"{  c #79807A",
"}  c #5AAD64",
"|  c #49B66C",
" . c #46BB6A",
".. c #4BBD75",
"X. c #4ABD7B",
"o. c #58BC73",
"O. c #67A863",
"+. c #76AB6A",
"@. c #2CC76E",
"#. c #2DC96F",
"$. c #33C36D",
"%. c #3CC36D",
"&. c #2ECC71",
"*. c #31CB72",
"=. c #3FCD76",
"-. c #43CE77",
";. c #54CD7B",
":. c #60CF7F",
">. c #998252",
",. c #A28466",
"<. c #A48768",
"1. c #A6896A",
"2. c #A98C6D",
"3. c #AE9171",
"4. c #B39675",
"5. c #B49977",
"6. c #B89B79",
"7. c #9AA074",
"8. c #A0A477",
"9. c #BCA07C",
"0. c #D78B67",
"q. c #E48E6D",
"w. c #F08569",
"e. c #E69D7D",
"r. c #F39878",
"t. c #C1A37F",
"y. c #748483",
"u. c #798685",
"i. c #778886",
"p. c #758C8E",
"a. c #7B8C8C",
"s. c #778E90",
"d. c #788F91",
"f. c #7B9295",
"g. c #7D9598",
"h. c #7F989B",
"j. c #57C284",
"k. c #62D181",
"l. c #7FD38A",
"z. c #6DCA94",
"x. c #6DD297",
"c. c #809494",
"v. c #819A9D",
"b. c #849EA1",
"n. c #C4A682",
"m. c #C6AA84",
"M. c #C9AD86",
"N. c #CBAE88",
"B. c #CEB18B",
"V. c #C1BB8B",
"C. c #D1B38D",
"Z. c #D3B691",
"A. c #D6BC92",
"S. c #DBBD95",
"D. c #F7B18B",
"F. c #F9BA93",
"G. c #9AC182",
"H. c #9CD693",
"J. c #A3D795",
"K. c #98D9B3",
"L. c #CAC190",
"P. c #DDC298",
"I. c #E2C59B",
"U. c #E9CA9F",
"Y. c #EBCDA1",
"T. c #EDD0A4",
"R. c #F1D2A5",
"E. c #FCD2A6",
"W. c #F4D6A8",
"Q. c #F5DBAC",
"!. c #FBDCAE",
"~. c #FDDEB0",
"^. c #FFE0B1",
"/. c #AAE0C1",
"(. c #B3E3C7",
"). c #CEEDDB",
"_. c #DEF3E7",
"`. c #F5FBF7",
"'. c #FFFFFF",
/* pixels */
"p.p.p.g.b.b.b.b.b.b.b.v.p.p.p.s.g.g.g.g.g.g.g.g.g.g.g.g.g.g.g.g.g.g.g.g.g.g.g.g.g.d.p.p.p.d.g.g.g.g.g.g.g.g.g.g.g.g.g.f.p.s.p.p.",
"p.s.v.b.b.b.b.b.b.b.b.b.v.p.p.p.g.g.g.g.g.g.g.g.g.g.g.g.g.g.g.g.g.g.g.g.g.g.g.g.g.s.p.p.d.g.g.g.g.g.g.g.g.g.g.g.g.g.g.g.d.s.p.p.",
"p.v.b.b.b.b.b.b.b.b.b.b.b.h.p.p.d.g.g.g.g.g.g.g.g.g.g.g.g.g.g.g.g.g.g.g.g.g.g.g.d.s.p.s.g.g.g.g.g.g.g.g.g.g.g.g.g.g.g.g.g.s.p.p.",
"v.b.b.b.b.b.b.b.b.b.b.b.b.b.g.p.s.f.g.g.g.g.g.g.g.g.g.g.g.g.g.g.g.g.g.g.g.g.g.g.s.p.p.d.g.g.g.g.g.g.g.g.g.g.g.g.g.g.g.g.g.d.p.p.",
"b.b.b.b.b.b.b.b.b.b.b.b.b.b.b.f.p.s.g.g.g.g.g.g.g.g.g.g.g.g.g.g.g.g.g.g.g.g.g.f.p.p.p.d.g.g.g.g.g.g.g.g.g.g.g.g.g.g.g.g.g.f.s.v.",
"b.b.b.b.b.b.b.b.b.b.b.b.b.b.b.v.p.p.s.g.g.g.g.g.g.g.g.g.g.g.g.g.g.g.g.g.g.g.d.s.p.p.p.s.g.g.g.g.g.g.g.g.g.g.g.g.g.g.g.g.g.d.d.b.",
"b.b.b.b.b.b.b.b.b.b.b.b.b.b.b.b.f.s.s.d.g.g.g.g.g.f.g.g.g.g.g.c.g.g.c.g.f.f.s.s.s.p.p.s.s.g.g.g.g.g.g.g.g.g.g.g.g.g.g.g.f.p.b.b.",
"b.b.b.b.b.b.b.b.b.b.b.b.b.b.b.b.f.p.p.s.s.d.a.p.a.u.i.i.i.i.i.u.i.i.i.i.y.[ [ y.d.i.p.i.s.f.g.g.g.g.g.g.g.g.g.g.g.g.g.d.s.p.g.b.",
"b.b.b.b.b.b.b.b.b.b.b.b.b.b.b.b.f.i.[ h d a r r 7 , 1 1 1 1 1 1 1 1 1 1 1 , 1 7 i t s g h [ s.g.g.g.g.g.g.g.g.g.g.g.f.s.p.p.s.b.",
"b.b.b.b.b.b.b.b.b.b.b.b.b.b.b.v.[ y 2 , = % 8 8 8 q q q q q q q q q q q q q q 9 8 8 ; = 1 7 a k f.f.g.g.g.g.g.g.g.g.s.p.p.p.s.h.",
"v.b.b.b.b.b.b.b.b.b.b.b.b.b.b.[ 2 = % 9 0 I Y Y Y T T T T T T T T T W Y T T T Y Y Y I ) q > & 1 k f.g.g.g.g.g.g.g.s.p.p.p.p.p.s.",
"f.b.b.b.b.b.b.b.b.b.b.b.b.v.p.1 $ 0 U E W ! ! ! ! ! ! ! ! ! ! ! ! ! ! ! ! ! ! ! ! ! ! ! R Y 0 % 1 i.g.g.g.g.g.f.s.p.p.p.p.p.p.p.",
"p.f.v.b.b.b.b.b.b.b.b.b.v.f.y = 0 T ! ! ! ! ! ! ! ! ! ! ! ! ! ! ! ! ! ! ! ! W ! ! ! ! ! ! W T 0 , a d.f.f.g.f.s.p.s.f.f.d.f.s.s.",
"p.p.f.b.b.b.b.b.b.b.b.b.f.p.2 = E ! ! ! ! ! ! ! ! ! ! ! ! ! ! ! ! ! ! ! ! ! ! ! ! ! ! ! ! ! ! T > 1 p.s.s.s.s.p.d.g.g.g.g.g.g.f.",
"g.s.p.h.b.b.b.b.b.b.v.s.p.p.= % ! ! ! ! ! ! ! ! ! ! ! ! ! ! ! ! ! ! ! ! ! ! ! ! ! ! ! ! ! ! ! ! > & p.p.p.p.s.d.g.g.g.g.g.g.g.g.",
"g.f.p.p.h.v.b.b.b.g.p.p.p.s.* ; ! ! ! ! ! ! ! ! ! ! ! ( z.(.).).).).(.z.^ ! ! ! ! ! ! ! ! ! ! ! > * p.p.p.s.d.g.g.g.g.g.g.g.g.g.",
"g.g.g.s.p.p.f.f.p.p.p.p.f.g.* = ! ! ! ! ! ! ! ! ! ! j.(.'.'.'.'.'.'.'.`./.X.! ! ! ! ! ! ! ! ! ! > & p.p.p.f.f.g.g.g.g.g.g.g.g.g.",
"g.g.g.f.p.p.p.p.p.p.p.f.g.g.* % ! ! ! ! ! ! ! ! ! X.(.'.'.'.'.'.'.'.'.'.`.(.X.! ! ! ! ! ! ! ! ! > * p.p.f.g.g.g.g.g.g.g.g.g.g.g.",
"g.g.g.g.f.p.p.p.p.p.s.g.g.g.* % ! ! ! ! ! ! ! ! ^ K.`.'.'.'.'.'.'.'.'.'.'.`.K.^ ! ! ! ! ! ! ! ! > * p.d.g.g.g.g.g.g.g.g.g.g.g.g.",
"g.g.g.g.g.f.p.p.p.p.f.g.g.g.* = ! ! ! ! ! ! R ! ( _.'.'.'.'.'.'.'.'.'.'.'.'._.X.! ! ! ! ! ! ! ! > * f.c.g.g.g.g.g.g.g.g.g.g.g.g.",
"g.g.g.g.g.g.g.p.p.p.f.g.g.h.* ; ! ! ! ~ ! ~ ~ ~ / x.x.x.x.x.x.x.x.x.x.x.x.x.x.$.~ ~ ! ! ! ! ! ! > * g.g.g.g.g.g.g.g.g.g.g.g.g.g.",
"g.g.g.g.g.g.g.f.p.p.p.g.g.c.* ; @.@.@.@.#.#.@.@.#.#.#.&.#.#.&.#.#.#.#.&.#.#.#.#.#.#.#.#.#.#.#.#.> * g.g.g.g.g.g.g.g.g.g.g.g.g.g.",
"g.g.g.g.g.g.g.g.g.p.p.s.g.g.* ; &.&.&.&.&.&.&.&.&.&.&.&.&.&.&.&.&.&.&.&.&.&.&.&.&.&.&.&.&.&.&.&.8 * c.g.g.g.g.g.g.g.g.g.g.g.g.g.",
"g.g.g.g.g.g.g.g.g.p.p.p.g.g.= ; &.&.&.&.&.&.&.&.&.&.&.&.&.&.&.&.&.&.&.&.&.&.&.&.&.&.&.&.&.&.&.#.8 * b.f.g.g.g.g.g.g.g.g.g.g.g.g.",
"g.g.g.g.g.g.g.g.g.f.p.p.p.f.= = / #.&.&.&.&.&.&.&.&.&.&.&.&.&.&.&.&.&.&.&.&.&.&.&.&.&.&.&.&.@.^ < , g.g.g.g.g.g.g.g.g.g.g.g.g.g.",
"g.g.g.g.g.g.g.g.g.f.p.p.p.p.7 = 0 Q E ;.:.k.k.k.k.k.k.k.k.k.k.k.k.k.k.k.k.k.k.k.k.k.k.k.;.| | w & 2 f.g.g.g.g.g.g.g.g.g.g.g.g.g.",
"g.g.g.g.g.g.g.g.f.f.p.p.p.[ r & * * : t.!.^.^.^.^.^.^.^.^.^.^.^.~.^.^.^.^.^.^.^.~.^.^.^.I.F * & & u g c.g.g.g.g.g.g.g.g.g.g.g.g.",
"g.g.g.g.g.g.g.g.g.s.p.p.h 2 5 F A : <.Y.^.^.R.m.N.W.^.^.^.^.^.^.^.^.^.^.^.^.W.B.m.Y.^.^.!.n.5 A D 6 , [ g.g.g.g.g.g.g.g.g.g.g.g.",
"g.g.g.g.g.g.g.g.f.p.p.y.7 , 3.M.5.D A.!.^.^.6.5 C n.^.^.^.^.^.^.^.^.^.^.^.^.N.C 5 3.^.^.^.Y.<.4.M.4.3 u a.g.g.g.g.g.g.g.g.g.g.g.",
"g.g.g.g.g.g.g.f.s.p.s.a - <.A.A.A.S.!.^.^.^.e * * G ^.^.^.^.^.^.^.^.^.^.^.^.,.* * 4 ^.^.^.^.I.A.S.Z.1.* s g.g.g.g.g.g.g.g.g.g.g.",
"g.g.g.g.g.g.g.s.p.p.p.r & N.A.A.I.!.^.^.^.^.: * * D ^.^.^.^.^.^.^.^.^.^.^.^.G * * * ^.^.^.^.~.I.A.A.Z.* 7 g.g.g.g.g.g.g.g.g.g.g.",
"g.g.g.g.g.g.f.p.p.p.p.r * C.P.A.I.!.^.^.^.^.S * * <.^.^.^.^.T.I.I.Y.!.^.^.^.2.- * C ^.^.^.^.~.I.A.A.A.* 7 g.g.g.g.g.g.g.g.g.g.g.",
"g.g.g.g.f.f.p.p.p.p.p.r * 5.A.A.I.!.^.^.^.^.I.: e U.^.^.^.W.P.A.A.P.T.^.^.^.U.A * A.^.^.^.^.W.I.P.L.9.* r g.g.g.g.g.g.g.g.g.g.g.",
"g.g.g.f.f.p.p.p.p.p.p.g , 5 m.A.P.W.^.^.^.^.^.^.^.^.^.U.t.m.A.A.A.A.N.9.U.!.^.^.^.^.^.^.^.^.!.P.Z.m.6 - j g.g.g.g.g.g.g.g.g.g.g.",
"g.g.f.f.p.p.p.p.p.p.p.p.a - 4 2.m.Y.^.^.^.^.^.^.^.^.P.D * S 5.9.9.6.G * D A.!.^.^.^.^.^.^.^.T.N.2.4 - y p.g.g.g.g.g.g.g.g.g.g.g.",
"g.g.p.p.p.p.p.p.p.p.f.g.g.g 2 - 5 m.^.^.^.^.^.^.^.Y.G * * * * * & * * & * S I.^.^.^.^.^.^.^.C.C = 2 f i.p.p.g.g.g.g.g.g.g.g.g.g.",
"f.p.p.p.p.p.p.p.p.f.g.g.g.f.[ s : 4.^.^.^.^.^.^.^.P.- * * * * * * * * * * - C.^.^.^.^.^.^.^.t.4 7 y.p.p.p.p.p.f.g.g.g.g.g.g.g.g.",
"f.p.p.p.p.p.p.p.f.f.g.g.g.g.d.s * <.W.^.^.^.^.^.^.Y.2.S - = * * * * * : S 1.U.^.^.^.^.^.^.W.2.: i f.v.g.p.p.p.p.f.g.g.g.g.g.g.f.",
"p.p.p.p.p.p.p.f.g.g.g.g.g.a.r , 9 ` V.!.^.^.^.^.^.!.R.I.Z.B.N.M.C.N.B.C.I.R.!.^.^.^.^.^.!.L.] 9 , i c.b.v.p.p.p.p.p.f.g.g.f.f.p.",
"p.p.p.p.p.p.p.f.g.g.g.g.g.r * q / $.+.0.w.w.w.w.q.G.l.l.l.l.l.H.l.H.l.l.l.l.G.q.w.w.w.w.0.+.$.$.w * 7 v.v.v.s.p.p.p.p.p.p.p.p.p.",
"p.p.p.p.p.p.f.g.g.g.g.g.j * = / *.*.*.O.L V B B B H *.&.*.*.*.*.@.&.&.&.*.$.>.V B B B J ' #.&.&.$.; * { b.b.h.s.p.p.p.p.p.p.p.p.",
"p.p.p.p.p.s.g.g.g.g.g.g.p * _ &.#.-.k.;.O.L B B B V Z  .&.&.&.&.#.#.&.&.%.>.V B B B J O.;.:.-.&.&._ * i b.b.b.h.s.p.p.p.p.p.p.p.",
"p.p.p.p.p.f.g.g.g.g.g.g.2 * $.=.H.Q.^.^.^.R.P B B B B N >.}  . . . .} >.N B B B B P W.^.^.^.!.J.-.$.* 1 b.b.b.b.h.s.p.p.p.p.p.p.",
"p.p.p.p.f.g.g.g.g.g.g.g.2 * &.H.^.^.^.^.^.^.!.B B B B B B B B B B B V V B B B B B E.^.^.^.^.^.^.J.*.* 2 b.b.b.b.b.v.p.p.p.p.p.p.",
"p.p.p.p.f.g.g.g.g.g.g.g.p * ..Q.^.^.^.^.^.^.^.B B B B B B B M M M M B B B B B B B ^.^.^.^.^.^.^.Q.o.& p b.b.b.b.b.b.f.p.p.p.p.p.",
"p.p.p.p.p.g.g.g.g.g.g.g.f * 7.^.^.^.^.^.^.^.E.B B B B B n b b b b v b m B B B B B E.^.^.^.^.^.^.^.8.* f b.b.b.b.b.b.v.p.p.p.p.p.",
"p.p.p.p.p.f.g.g.g.g.g.g.g = <.^.^.^.^.^.^.^.D.B B B B m v v v v v v v v m B B B B D.!.^.^.^.^.^.^.2.* j b.b.b.b.b.b.b.p.p.p.p.p.",
"p.p.p.p.p.p.f.g.g.g.g.v.{ * S ^.^.^.^.^.^.!.P B B B M v v v v v v v v v v m B B B P !.~.^.^.^.^.^.F * u.b.b.b.b.b.b.h.p.p.p.p.p.",
"p.p.p.p.p.p.p.f.g.g.g.g.p.- - R.~.~.~.^.^.D.K B B B v v v v v v v v v v v v m B B B r.^.^.^.^.^.R.: * c.b.b.b.b.b.b.d.p.p.p.p.p.",
"p.p.p.p.p.p.p.p.f.g.g.g.f.p * ,.!.~.~.~.F.K B B B b v v c x z z z x x c v v n B B B K F.^.^.^.W.1.- p b.b.b.b.b.b.f.p.p.p.s.s.p.",
"f.p.p.p.p.p.p.p.p.f.f.g.g.a.- - G Z.N.D.K K B B B b l + + & * * * * * $ + l b B B B B K e.Z.B.<.: * c.b.b.b.b.b.g.p.p.p.h.b.b.b.",
"b.g.p.p.p.p.p.p.p.p.p.f.g.g.i.2 & O                     o & s k k a & o                     # * 1 c.b.b.b.b.b.g.p.p.p.g.b.b.b.b.",
"b.b.h.p.p.p.p.p.p.p.p.p.s.f.f.y.& #                     O & h g.s.g & O                   . # = c.v.b.b.b.b.g.p.p.p.h.b.b.b.b.b.",
"b.b.b.g.p.p.p.p.p.p.p.p.p.p.p.u.1 & O o .           . o $ , u.g.f.[ , $ o . .           X # & t c.v.b.b.b.g.p.p.p.h.b.b.b.b.b.b.",
"b.b.b.b.f.p.p.p.p.p.p.p.p.p.p.p.g 1 & & # O O O O O + & , g d.h.f.f.f , & $ # @ O O @ # $ & 2 [ v.b.b.b.f.p.p.p.f.b.b.b.b.b.b.b.",
"b.b.b.b.h.p.p.p.p.p.p.p.p.p.p.p.p.h a 2 , * * * * * 2 s j s.c.c.g.g.f.h a 2 1 * * * * - < y [ p.f.c.g.p.p.p.p.p.h.b.b.b.b.b.b.b.",
"b.b.b.b.h.p.p.p.p.p.p.p.p.p.p.p.p.p.y.y.k k k k k k u.d.f.g.g.g.g.g.g.g.p.[ k h g g g [ [ y.p.p.p.p.p.p.p.p.p.p.h.b.b.b.b.b.b.b.",
"b.b.b.b.f.p.p.p.p.p.p.p.p.p.p.p.p.p.s.s.g.g.g.g.c.g.g.g.g.g.g.g.g.g.g.g.c.f.p.s.p.p.p.p.p.p.p.p.p.p.p.p.p.p.p.p.g.b.b.b.b.b.b.b.",
"b.b.b.g.p.p.p.p.p.p.p.p.p.p.p.p.p.p.s.g.g.g.g.g.h.g.g.g.g.g.g.g.g.g.g.g.g.g.s.p.p.p.p.p.p.p.p.p.p.p.p.p.p.p.p.p.p.h.b.b.b.b.b.b.",
"b.b.g.p.p.p.p.p.p.p.p.p.p.p.p.p.p.s.f.g.g.g.g.g.g.g.g.g.g.g.g.g.g.g.g.g.g.g.g.s.p.p.p.p.p.p.p.p.p.p.f.g.g.g.f.p.p.p.h.b.b.b.b.b.",
"b.f.p.p.p.p.p.p.p.p.p.p.p.p.p.p.s.d.g.g.g.g.g.g.g.g.g.g.g.g.g.g.g.g.g.g.g.g.g.f.p.p.p.p.p.p.p.p.p.f.g.g.g.g.g.f.p.p.p.g.b.b.b.b.",
"f.p.p.p.p.p.p.p.p.p.p.p.p.p.p.p.s.g.g.g.g.g.g.g.g.g.g.g.g.g.g.g.g.g.g.g.g.g.g.g.f.p.p.p.p.p.p.p.f.f.g.g.g.g.g.g.g.p.p.p.f.b.b.b.",
"p.p.p.p.p.f.h.h.h.g.s.p.p.p.p.p.g.g.g.g.g.g.g.g.g.g.g.g.g.g.g.g.g.g.g.g.g.g.g.g.g.p.p.p.p.p.p.f.g.g.g.g.g.g.g.g.g.g.p.p.p.p.s.p.",
"p.p.p.p.f.v.b.b.b.b.h.p.p.p.p.p.g.g.g.g.g.g.g.g.g.g.g.g.g.g.g.g.g.g.g.g.g.g.g.g.g.s.p.p.p.p.f.g.g.g.g.g.g.g.g.g.g.g.g.p.p.p.p.p."
};
