/* XPM */
static char *result[] = {
/* columns rows colors chars-per-pixel */
"64 64 115 2 ",
"   c #8A5D2F",
".  c #8B5D2F",
"X  c #8B5E2F",
"o  c #8C5E2F",
"O  c #936332",
"+  c #966533",
"@  c #976633",
"#  c #976634",
"$  c #986633",
"%  c #986634",
"&  c #9A6835",
"*  c #9B6835",
"=  c #9C6935",
"-  c #9C6936",
";  c #9D6A36",
":  c #A06C37",
">  c #A26D38",
",  c #A36E38",
"<  c #A56F39",
"1  c #A6703A",
"2  c #AA733C",
"3  c #AB733C",
"4  c #AB743C",
"5  c #AD753C",
"6  c #AE753D",
"7  c #AE763D",
"8  c #AF763D",
"9  c #B1783D",
"0  c #B2783E",
"q  c #B2793E",
"w  c #B3793E",
"e  c #B3793F",
"r  c #B4793E",
"t  c #B57A3F",
"y  c #B67A3F",
"u  c #B77B40",
"i  c #B87C40",
"p  c #BA7E41",
"a  c #BB7E41",
"s  c #BC7F41",
"d  c #B78147",
"f  c #BB8043",
"g  c #BC8042",
"h  c #BD8042",
"j  c #BC8043",
"k  c #BD8043",
"l  c #BB8144",
"z  c #BA8145",
"x  c #B98146",
"c  c #BA8146",
"v  c #B98247",
"b  c #BA8247",
"n  c #BC8044",
"m  c #BC8144",
"M  c #B5844F",
"N  c #B88249",
"B  c #AB8353",
"V  c #AC8252",
"C  c #A6845A",
"Z  c #A2855E",
"A  c #AA8659",
"S  c #AB895D",
"D  c #AA895F",
"F  c #B08452",
"G  c #B18654",
"H  c #988668",
"J  c #9D8A6B",
"K  c #9C8A6D",
"L  c #8A8876",
"P  c #8C8874",
"I  c #8D8D7D",
"U  c #9F8F71",
"Y  c #9E9074",
"T  c #A68860",
"R  c #A68B65",
"E  c #A18968",
"W  c #A18E6E",
"Q  c #A18E6F",
"!  c #758C8D",
"~  c #758C8E",
"^  c #758D8F",
"/  c #768D8F",
"(  c #768E90",
")  c #778E90",
"_  c #778E91",
"`  c #778F91",
"'  c #788F91",
"]  c #788F92",
"[  c #789092",
"{  c #799093",
"}  c #799193",
"|  c #7A9194",
" . c #7A9294",
".. c #7A9295",
"X. c #7B9295",
"o. c #7B9396",
"O. c #7C9396",
"+. c #7C9497",
"@. c #7C9597",
"#. c #7D9597",
"$. c #7D9598",
"%. c #7D9698",
"&. c #7E9798",
"*. c #7E9799",
"=. c #7F989B",
"-. c #889187",
";. c #8F978D",
":. c #949584",
">. c #8C9991",
",. c #80999C",
"<. c #819A9D",
"1. c #829B9E",
"2. c #839C9F",
"3. c #849EA0",
"4. c #849EA1",
/* pixels */
"~ ~ ~ @.4.4.4.4.4.4.4.<.^ ~ ~ ) $.$.$.$.$.$.$.$.$.$.$.$.$.$.$.$.$.$.$.$.$.$.$.$.$.{ ~ ~ ~ | $.$.$.$.$.$.$.$.$.$.$.$.$.o.~ ~ ~ ~ ",
"~ ( <.4.4.4.4.4.4.4.4.4.1.^ ~ ~ +.$.$.$.$.$.$.$.$.$.$.$.$.$.$.$.$.$.$.$.$.$.$.$.$./ ~ ~ { $.$.$.$.$.$.$.$.$.$.$.$.$.$.$. .~ ~ ~ ",
"^ <.4.4.4.4.4.4.4.4.4.4.4.<.~ ~ { $.$.$.$.$.$.$.$.$.$.$.$.$.$.$.$.$.$.$.$.$.$.$.X.~ ~ / +.$.$.$.$.$.$.$.$.$.$.$.$.$.$.$.$._ ~ ~ ",
"<.4.4.4.4.4.>.U S G v h h h h h h h h h h h h h h h h h h h h 3 2 h h h h h h h h h h h h h h h h h h h h z F A J -.#.$.$. .~ ~ ",
"4.4.4.4.4.Y b l j m h h h h h h h h h h h h h h h h h h h h h 3 2 h h h h h h h h h h h h h h h h h h h h g f f l c K $.$.X.~ <.",
"4.4.4.4.W h s y 8 7 4 2 2 2 2 2 2 2 2 2 2 2 2 2 2 2 2 2 2 2 2 = = 2 2 2 2 2 2 2 2 2 2 2 2 2 2 2 2 2 2 2 2 4 7 8 t s h E $.' ..4.",
"4.4.4.:.b s 8 2 2 2 2 2 2 2 2 2 2 2 2 2 2 2 2 2 2 2 2 2 2 2 2 = = 2 2 2 2 2 2 2 2 2 2 2 2 2 2 2 2 2 2 2 2 2 2 2 2 6 a h I ~ ,.4.",
"4.4.4.D j w 2 2 2 2 2 2 2 2 2 2 2 2 2 2 2 2 2 2 2 2 2 2 2 2 2 = = 2 2 2 2 2 2 2 2 2 2 2 2 2 2 2 2 2 2 2 2 2 2 2 2 2 q h C ~ *.4.",
"4.4.4.N h 4 2 2 2 2 2 2 2 2 2 2 2 2 2 2 2 2 2 2 2 2 2 2 2 2 2 = = 2 2 2 2 2 2 2 2 2 2 2 2 2 2 2 2 2 2 2 2 2 2 2 2 2 4 h d ~ [ 4.",
"4.4.4.h h 2 2 2 2 2 2 2 2 2 2 2 2 2 2 2 2 2 2 2 2 2 2 2 2 2 2 = = 2 2 2 2 2 2 2 2 2 2 2 2 2 2 2 2 2 2 2 2 2 2 2 2 2 2 h h ~ ~ =.",
"1.4.4.h h 2 2 2 2 2 2 2 2 2 2 2 2 2 2 2 2 2 2 2 2 2 2 2 2 2 2 = = 2 2 2 2 2 2 2 2 2 2 2 2 2 2 2 2 2 2 2 2 2 2 2 2 2 2 h h ~ ~ ^ ",
"` 4.4.h h 2 2 2 2 2 2 2 2 2 2 2 2 2 2 2 2 2 2 2 2 2 2 2 2 2 2 = = 2 2 2 2 2 2 2 2 2 2 2 2 2 2 2 2 2 2 2 2 2 2 2 2 2 2 h h ~ ~ ~ ",
"~ ..4.h h 2 2 2 2 2 2 2 2 2 2 2 2 2 2 2 2 2 2 2 2 2 2 2 2 2 2 = = 2 2 2 2 2 2 2 2 2 2 2 2 2 2 2 2 2 2 2 2 2 2 2 2 2 2 h h X.] ~ ",
"~ ~ o.h h 2 2 2 2 2 2 2 2 2 2 2 2 2 2 2 2 2 2 2 2 2 2 2 2 2 2 = = 2 2 2 2 2 2 2 2 2 2 2 2 2 2 2 2 2 2 2 2 2 2 2 2 2 2 h h $.$.+.",
"O./ ~ h h 2 2 2 2 2 2 2 2 2 2 2 2 2 2 2 2 2 2 2 2 2 2 2 2 2 2 = = 2 2 2 2 2 2 2 2 2 2 2 2 2 2 2 2 2 2 2 2 2 2 2 2 2 2 h h $.$.$.",
"$.+./ h h 2 2 2 2 2 2 2 2 2 2 2 2 2 2 2 2 2 2 2 2 2 2 2 2 2 2 = = 2 2 2 2 2 2 2 2 2 2 2 2 2 2 2 2 2 2 2 2 2 2 2 2 2 2 h h $.$.$.",
"$.$.+.i i > > > > > > > > > > > > > > > > > > > > > > > > > > $ @ > > > > > > > > > > > > > > > > > > > > > > > > > > i i $.$.$.",
"$.$.$.2 2                                                                                                             2 2 $.$.$.",
"$.$.$.e e & & & & & & & & & & & % O + & & & & & & & & & & & & & & & & & & & & & & & & & & + O # & & & & & & & & & & & e e $.$.$.",
"$.$.$.h h 2 2 2 2 2 2 2 2 2 2 2 1 = , 2 2 2 2 2 2 2 2 2 2 2 2 2 2 2 2 2 2 2 2 2 2 2 2 2 2 , = < 2 2 2 2 2 2 2 2 2 2 2 h h $.$.$.",
"$.$.$.h h 2 2 2 2 2 2 2 2 2 2 2 1 = , 2 2 2 2 2 2 2 2 2 2 2 2 2 2 2 2 2 2 2 2 2 2 2 2 2 2 , = < 2 2 2 2 2 2 2 2 2 2 2 h h $.$.$.",
"$.$.$.h h 2 2 2 2 2 2 2 2 2 2 2 1 = , 2 2 2 2 2 2 2 2 2 2 2 2 2 2 2 2 2 2 2 2 2 2 2 2 2 2 , = < 2 2 2 2 2 2 2 2 2 2 2 h h $.$.$.",
"$.$.$.h h 2 2 2 2 2 2 2 2 2 2 2 1 = , 2 2 2 2 2 2 2 2 2 2 2 2 2 2 2 2 2 2 2 2 2 2 2 2 2 2 , = < 2 2 2 2 2 2 2 2 2 2 2 h h $.$.$.",
"$.$.$.h h 2 2 2 2 2 2 2 2 2 2 2 1 = , 2 2 2 2 2 2 2 2 2 2 2 2 2 2 2 2 2 2 2 2 2 2 2 2 2 2 , = < 2 2 2 2 2 2 2 2 2 2 2 h h $.$.$.",
"$.$.$.h h 2 2 2 2 2 2 2 2 2 2 2 1 = , 2 2 2 2 2 2 2 2 2 2 2 2 2 2 2 2 2 2 2 2 2 2 2 2 2 2 , = < 2 2 2 2 2 2 2 2 2 2 2 h h $.$.$.",
"$.$.$.h h 2 2 2 2 2 2 2 2 2 2 2 1 = , 2 2 2 2 2 2 2 2 2 2 2 2 2 2 2 2 2 2 2 2 2 2 2 2 2 2 , = < 2 2 2 2 2 2 2 2 2 2 2 h h $.$.$.",
"$.$.$.h h 2 2 2 2 2 2 2 2 2 2 2 1 = , 2 2 2 2 2 2 2 2 2 2 2 2 2 2 2 2 2 2 2 2 2 2 2 2 2 2 , = < 2 2 2 2 2 2 2 2 2 2 2 h h $.$.$.",
"$.$.$.h h 2 2 2 2 2 2 2 2 2 2 2 1 = , 2 2 2 2 2 2 2 2 2 2 2 2 2 2 2 2 2 2 2 2 2 2 2 2 2 2 , = < 2 2 2 2 2 2 2 2 2 2 2 h h $.$.$.",
"$.$.$.h h 2 2 2 2 2 2 2 2 2 2 2 1 = , 2 2 2 2 2 2 2 2 2 2 2 2 2 2 2 2 2 2 2 2 2 2 2 2 2 2 , = < 2 2 2 2 2 2 2 2 2 2 2 h h $.$.$.",
"$.$.$.h h 2 2 2 2 2 2 2 2 2 2 2 1 = , 2 2 2 2 2 2 2 2 2 2 2 2 2 2 2 2 2 2 2 2 2 2 2 2 2 2 , = < 2 2 2 2 2 2 2 2 2 2 2 h h $.$.$.",
"$.$.$.h h 2 2 2 2 2 2 2 2 2 2 2 1 = , 2 2 2 2 2 2 2 2 2 2 2 2 2 2 2 2 2 2 2 2 2 2 2 2 2 2 , = < 2 2 2 2 2 2 2 2 2 2 2 h h $.$.$.",
"$.$.$.3 3 o o o o o o o o o o o X . X o o o o o o o o o o o o o o o o o o o o o o o o o o X . X o o o o o o o o o o o 3 3 $.$.$.",
"$.$.$.2 2                                                                                                             2 2 $.$.$.",
"$.$.$.h h 2 2 2 2 2 2 2 2 2 2 2 2 2 2 2 2 2 2 2 2 2 2 2 2 2 2 = = 2 2 2 2 2 2 2 2 2 2 2 2 2 2 2 2 2 2 2 2 2 2 2 2 2 2 h h $.$.$.",
"$.$.$.h h 2 2 2 2 2 2 2 2 2 2 2 2 2 2 2 2 2 2 2 2 2 2 2 2 2 2 = = 2 2 2 2 2 2 2 2 2 2 2 2 2 2 2 2 2 2 2 2 2 2 2 2 2 2 h h $.$.$.",
"$.$.' h h 2 2 2 2 2 2 2 2 2 2 2 2 2 2 2 2 2 2 2 2 2 2 2 2 2 2 = = 2 2 2 2 2 2 2 2 2 2 2 2 2 2 2 2 2 2 2 2 2 2 2 2 2 2 h h $.$.$.",
"+._ ~ h h 2 2 2 2 2 2 2 2 2 2 2 2 2 2 2 2 2 2 2 2 2 2 2 2 2 2 = = 2 2 2 2 2 2 2 2 2 2 2 2 2 2 2 2 2 2 2 2 2 2 2 2 2 2 h h $.$.$.",
"/ ~ ~ h h 2 2 2 2 2 2 2 2 2 2 2 2 2 2 2 2 2 2 2 2 2 2 2 2 2 2 = = 2 2 2 2 2 2 2 2 2 2 2 2 2 2 2 2 2 2 2 2 2 2 2 2 2 2 h h $.$.+.",
"~ ~ ~ h h 2 2 2 2 2 2 2 2 2 2 2 2 2 2 2 2 2 2 2 2 2 2 2 2 2 2 = = 2 2 2 2 2 2 2 2 2 2 2 2 2 2 2 2 2 2 2 2 2 2 2 2 2 2 h h +.{ ~ ",
"~ ~ ~ h h 2 2 2 2 2 2 2 2 2 2 2 2 2 2 2 2 2 2 2 2 2 2 2 2 2 2 = = 2 2 2 2 2 2 2 2 2 2 2 2 2 2 2 2 2 2 2 2 2 2 2 2 2 2 h h ~ ~ ~ ",
"~ ~ ~ h h 2 2 2 2 2 2 2 2 2 2 2 2 2 2 2 2 2 2 2 2 2 2 2 2 2 2 = = 2 2 2 2 2 2 2 2 2 2 2 2 2 2 2 2 2 2 2 2 2 2 2 2 2 2 h h ~ ~ ~ ",
"~ ~ ~ h h 2 2 2 2 2 2 2 2 2 2 2 2 2 2 2 2 2 2 2 2 2 2 2 2 2 2 = = 2 2 2 2 2 2 2 2 2 2 2 2 2 2 2 2 2 2 2 2 2 2 2 2 2 2 h h ~ ~ ~ ",
"~ ~ ~ h h 2 2 2 2 2 2 2 2 2 2 2 2 2 2 2 2 2 2 2 2 2 2 2 2 2 2 = = 2 2 2 2 2 2 2 2 2 2 2 2 2 2 2 2 2 2 2 2 2 2 2 2 2 2 h h ~ ~ ~ ",
"~ ~ ~ h h 2 2 2 2 2 2 2 2 2 2 2 2 2 2 2 2 2 2 2 2 2 2 2 2 2 2 = = 2 2 2 2 2 2 2 2 2 2 2 2 2 2 2 2 2 2 2 2 2 2 2 2 2 2 h h ~ ~ ~ ",
"~ ~ ~ h h 2 2 2 2 2 2 2 2 2 2 2 2 2 2 2 2 2 2 2 2 2 2 2 2 2 2 = = 2 2 2 2 2 2 2 2 2 2 2 2 2 2 2 2 2 2 2 2 2 2 2 2 2 2 h h ~ ~ ~ ",
"~ ~ ~ e e & & & & & & & & & & & & & & & & & & & & & & & & & & O O & & & & & & & & & & & & & & & & & & & & & & & & & & e e ~ ~ ~ ",
"~ ~ ~ 2 2                                                                                                             2 2 ~ ~ ~ ",
"~ ~ ~ u u : : : : : : : : : : : ; + * : : : : : : : : : : : : : : : : : : : : : : : : : : * + - : : : : : : : : : : : u u ~ ~ ~ ",
"~ ~ ~ h h 2 2 2 2 2 2 2 2 2 2 2 1 = , 2 2 2 2 2 2 2 2 2 2 2 2 2 2 2 2 2 2 2 2 2 2 2 2 2 2 , = < 2 2 2 2 2 2 2 2 2 2 2 h h ~ ~ ~ ",
"~ ~ ~ h h 2 2 2 2 2 2 2 2 2 2 2 1 = , 2 2 2 2 2 2 2 2 2 2 2 2 2 2 2 2 2 2 2 2 2 2 2 2 2 2 , = < 2 2 2 2 2 2 2 2 2 2 2 h h ( [ ^ ",
"..~ ~ h h 2 2 2 2 2 2 2 2 2 2 2 1 = , 2 2 2 2 2 2 2 2 2 2 2 2 2 2 2 2 2 2 2 2 2 2 2 2 2 2 , = < 2 2 2 2 2 2 2 2 2 2 2 h h 4.4.4.",
"4.%.~ h h 2 2 2 2 2 2 2 2 2 2 2 1 = , 2 2 2 2 2 2 2 2 2 2 2 2 2 2 2 2 2 2 2 2 2 2 2 2 2 2 , = < 2 2 2 2 2 2 2 2 2 2 2 h h 4.4.4.",
"4.4.*.h h 2 2 2 2 2 2 2 2 2 2 2 1 = , 2 2 2 2 2 2 2 2 2 2 2 2 2 2 2 2 2 2 2 2 2 2 2 2 2 2 , = < 2 2 2 2 2 2 2 2 2 2 2 h h 4.4.4.",
"4.4.4.h h 2 2 2 2 2 2 2 2 2 2 2 1 = , 2 2 2 2 2 2 2 2 2 2 2 2 2 2 2 2 2 2 2 2 2 2 2 2 2 2 , = < 2 2 2 2 2 2 2 2 2 2 2 h h 4.4.4.",
"4.4.4.h h 3 2 2 2 2 2 2 2 2 2 2 1 = , 2 2 2 2 2 2 2 2 2 2 2 2 2 2 2 2 2 2 2 2 2 2 2 2 2 2 , = < 2 2 2 2 2 2 2 2 2 2 2 h h 4.4.4.",
"4.4.4.M k 5 2 2 2 2 2 2 2 2 2 2 1 = , 2 2 2 2 2 2 2 2 2 2 2 2 2 2 2 2 2 2 2 2 2 2 2 2 2 2 , = < 2 2 2 2 2 2 2 2 2 2 5 h M 4.4.4.",
"4.4.4.R n t 2 2 2 2 2 2 2 2 2 2 1 = , 2 2 2 2 2 2 2 2 2 2 2 2 2 2 2 2 2 2 2 2 2 2 2 2 2 2 , = < 2 2 2 2 2 2 2 2 2 2 r h R 4.4.4.",
"4.4.4.;.x s 6 2 2 2 2 2 2 2 2 2 1 = , 2 2 2 2 2 2 2 2 2 2 2 2 2 2 2 2 2 2 2 2 2 2 2 2 2 2 , = < 2 2 2 2 2 2 2 2 2 6 a h ;.4.4.4.",
"4.4.4.&.H h a 0 3 2 2 2 2 2 2 2 1 = , 2 2 2 2 2 2 2 2 2 2 2 2 2 2 2 2 2 2 2 2 2 2 2 2 2 2 , = < 2 2 2 2 2 2 2 3 9 p s Q 3.4.4.4.",
"4.4.*.~ ~ Z h h h h h h h h h h i 2 e h h h h h h h h h h h h h h h h h h h h h h h h h h e 2 u h h h h h h h h h h T 4.4.4.4.4.",
"4.o.~ ~ ~ ~ L B h h h h h h h h i 2 e h h h h h h h h h h h h h h h h h h h h h h h h h h e 2 u h h h h h h h h V P ! %.4.4.4.4.",
"..~ ~ ~ ~ ~ ~ ~ ~ ~ ~ ~ ~ ~ ~ ~ ] $.$.$.$.$.$.$.$.$.$.$.$.$.$.$.$.$.$.$.$.$.$.$. .~ ~ ~ ~ ~ ~ ~ X.$.$.$.$.$.$.$.O./ ~ ~ ..4.4.4.",
"~ ~ ~ ~ ~ [ *.,.,.@.( ~ ~ ~ ~ ~ O.$.$.$.$.$.$.$.$.$.$.$.$.$.$.$.$.$.$.$.$.$.$.$.$./ ~ ~ ~ ~ ~ o.$.$.$.$.$.$.$.$.$.+./ ~ ~ ^ [ ^ ",
"~ ~ ~ ~ } 2.4.4.4.4.1.^ ~ ~ ~ ) $.$.$.$.$.$.$.$.$.$.$.$.$.$.$.$.$.$.$.$.$.$.$.$.$.{ ~ ~ ~ ~  .$.$.$.$.$.$.$.$.$.$.$.+.~ ~ ~ ~ ~ "
};
